<svg xmlns="http://www.w3.org/2000/svg" viewBox="0 0 512.001 512.001"><path d="M256.001 0c-141.159 0-256 114.841-256 256.001s114.841 256.001 256.001 256.001c141.158 0 255.999-114.841 255.999-256.001S397.159 0 256.001 0zm0 493.701c-131.069 0-237.702-106.631-237.702-237.7S124.932 18.299 256.001 18.299c131.068 0 237.7 106.632 237.7 237.702s-106.632 237.7-237.7 237.7z"/><path d="M380.435 255.464H131.567a9.15 9.15 0 0 0-9.15 9.15c0 14.662 2.367 29.087 7.034 42.876 8.934 26.382 25.643 48.999 48.314 65.4 22.86 16.557 49.914 25.309 78.235 25.309 28.32 0 55.373-8.752 78.23-25.305 22.676-16.405 39.386-39.02 48.319-65.402 4.667-13.789 7.034-28.214 7.034-42.875a9.148 9.148 0 0 0-9.148-9.153zM256.001 379.896c-21.321.001-41.804-5.746-59.778-16.695 7.649-8.21 18.499-13.083 29.926-13.083 8.87 0 17.302 2.79 24.385 8.067a9.15 9.15 0 0 0 10.934 0c7.082-5.279 15.509-8.067 24.372-8.067 11.421 0 22.272 4.871 29.932 13.085-17.971 10.948-38.451 16.693-59.771 16.693zm74.676-27.456c-11.137-12.9-27.533-20.621-44.838-20.621-10.623 0-20.819 2.77-29.84 8.066-9.021-5.295-19.221-8.066-29.852-8.066-17.311 0-33.707 7.722-44.829 20.617-12.623-10.71-22.68-23.855-29.665-38.733h208.694c-6.985 14.88-17.043 28.025-29.67 38.737zm36.441-57.035H144.883a114.885 114.885 0 0 1-3.809-21.642h229.852a114.737 114.737 0 0 1-3.808 21.642zM203.316 200.358l-54.287-38.174a9.15 9.15 0 0 0-10.526 14.969l35.988 25.306-75.523 12.47a9.15 9.15 0 0 0-7.537 10.518c.739 4.481 4.619 7.66 9.017 7.66.495 0 .997-.04 1.502-.123l97.595-16.113a9.15 9.15 0 0 0 3.771-16.513zM413.034 214.929L337.51 202.46l35.988-25.306c4.133-2.907 5.129-8.614 2.222-12.747-2.907-4.134-8.615-5.129-12.747-2.221l-54.287 38.174a9.152 9.152 0 0 0 3.772 16.512l97.595 16.113a9.154 9.154 0 0 0 10.519-7.537c.822-4.987-2.552-9.696-7.538-10.519z"/></svg>