<svg xmlns="http://www.w3.org/2000/svg" viewBox="0 0 512.001 512.001"><path d="M256.001 0C114.841 0 0 114.841 0 256.001s114.841 256.001 256.001 256.001 256-114.842 256-256.001S397.16 0 256.001 0zm0 493.701c-131.069 0-237.702-106.631-237.702-237.7S124.932 18.299 256.001 18.299s237.702 106.632 237.702 237.702-106.635 237.7-237.702 237.7z"/><path d="M371.284 296.658H138.275c-5.054 0-9.15 4.097-9.15 9.15s4.095 9.15 9.15 9.15h233.008a9.15 9.15 0 0 0 9.15-9.15 9.149 9.149 0 0 0-9.149-9.15zM297.481 330.816h-85.403c-5.054 0-9.15 4.097-9.15 9.15s4.095 9.15 9.15 9.15h85.403a9.15 9.15 0 1 0 0-18.3zM146.725 192.982c-18.666 0-33.852 15.186-33.852 33.852 0 18.666 15.186 33.852 33.852 33.852 18.666 0 33.852-15.186 33.852-33.852 0-18.666-15.186-33.852-33.852-33.852zM365.275 192.982c-18.666 0-33.852 15.186-33.852 33.852 0 18.666 15.186 33.852 33.852 33.852s33.852-15.186 33.852-33.852c.001-18.666-15.185-33.852-33.852-33.852z"/><circle cx="155.969" cy="219.735" r="9.15"/><circle cx="374.338" cy="219.735" r="9.15"/></svg>