<svg xmlns="http://www.w3.org/2000/svg" viewBox="0 0 512.001 512.001" width="512" height="512"><path d="M256.001 0C114.841 0 0 114.841 0 256.001s114.841 256.001 256.001 256.001 256-114.842 256-256.001S397.16 0 256.001 0zm0 493.701c-131.069 0-237.702-106.631-237.702-237.7S124.932 18.299 256.001 18.299s237.702 106.632 237.702 237.702-106.635 237.7-237.702 237.7z" fill="#ff6b6b"/><path d="M364.035 333.645c-31.958-21.497-69.315-32.859-108.033-32.859s-76.074 11.362-108.033 32.859a9.147 9.147 0 0 0-2.486 12.698 9.15 9.15 0 0 0 12.698 2.485c28.928-19.458 62.754-29.743 97.821-29.743s68.892 10.285 97.821 29.743a9.102 9.102 0 0 0 5.098 1.559 9.148 9.148 0 0 0 5.114-16.742z" fill="#ff6b6b"/><path d="M289.651 348.107c-22.015-8.405-45.288-8.404-67.3 0-4.721 1.803-7.088 7.09-5.285 11.811a9.153 9.153 0 0 0 11.811 5.285c17.742-6.776 36.502-6.777 54.248 0a9.125 9.125 0 0 0 3.262.604 9.152 9.152 0 0 0 8.549-5.889 9.15 9.15 0 0 0-5.285-11.811zM146.725 171.267c-18.666 0-33.852 15.186-33.852 33.852 0 18.666 15.186 33.852 33.852 33.852 18.666 0 33.852-15.187 33.852-33.852 0-18.666-15.186-33.852-33.852-33.852zM365.275 171.267c-18.666 0-33.852 15.186-33.852 33.852s15.186 33.852 33.852 33.852 33.852-15.186 33.852-33.852c.001-18.666-15.185-33.852-33.852-33.852z" fill="#ff6b6b"/><g fill="#ff6b6b"><circle cx="158.007" cy="197.777" r="9.15"/><circle cx="376.376" cy="197.777" r="9.15"/></g></svg>