<svg xmlns="http://www.w3.org/2000/svg" viewBox="0 0 512.001 512.001" width="512" height="512"><path d="M256.001 0C114.841 0 0 114.841 0 256.001s114.841 256.001 256.001 256.001 256-114.842 256-256.001S397.16 0 256.001 0zm0 493.701c-131.069 0-237.702-106.631-237.702-237.7S124.932 18.299 256.001 18.299s237.702 106.632 237.702 237.702-106.635 237.7-237.702 237.7z" fill="#ff6b6b"/><path d="M398.043 356.96c-36.608-36.606-85.276-56.765-137.043-56.765-51.768 0-100.436 20.159-137.042 56.765a9.15 9.15 0 0 0 12.94 12.939c33.148-33.148 77.222-51.405 124.102-51.405s90.954 18.256 124.102 51.405a9.125 9.125 0 0 0 6.471 2.68 9.126 9.126 0 0 0 6.471-2.68c3.572-3.573 3.572-9.367-.001-12.939z" fill="#ff6b6b"/><path d="M299.85 348.356a162.404 162.404 0 0 0-87.7 0 9.151 9.151 0 0 0 4.94 17.621 144.092 144.092 0 0 1 77.821 0c4.865 1.366 9.914-1.475 11.28-6.34 1.363-4.866-1.476-9.917-6.341-11.281zM232.023 223.786c-1.327-4.877-6.362-7.753-11.231-6.428-64.86 17.643-92.98-23.546-94.224-25.432-2.744-4.223-8.388-5.438-12.626-2.709-4.249 2.735-5.475 8.397-2.74 12.646.305.476 6.439 9.849 19.049 19.163-10.357 5.797-17.379 16.872-17.379 29.559 0 18.666 15.186 33.852 33.852 33.852s33.852-15.186 33.852-33.852c0-3.914-.676-7.672-1.903-11.172 3.656.376 7.477.589 11.481.589 10.598 0 22.411-1.442 35.442-4.985a9.153 9.153 0 0 0 6.427-11.231zM400.8 201.865c2.734-4.25 1.508-9.912-2.741-12.647-4.248-2.735-9.912-1.509-12.645 2.74-.279.434-28.711 43.216-94.205 25.402-4.871-1.322-9.903 1.551-11.231 6.428-1.326 4.876 1.552 9.903 6.428 11.231 13.033 3.544 24.843 4.985 35.442 4.985 4.003 0 7.823-.214 11.48-.589a33.7 33.7 0 0 0-1.903 11.172c0 18.666 15.186 33.852 33.852 33.852s33.852-15.186 33.852-33.852c0-12.689-7.021-23.762-17.378-29.558 12.61-9.316 18.744-18.69 19.049-19.164z" fill="#ff6b6b"/><g fill="#ff6b6b"><circle cx="153.566" cy="249.27" r="9.15"/><circle cx="371.935" cy="249.27" r="9.15"/></g></svg>