<svg xmlns="http://www.w3.org/2000/svg" viewBox="0 0 512.001 512.001"><path d="M256.001 0C114.841 0 0 114.841 0 256.001s114.841 256.001 256.001 256.001 256-114.842 256-256.001C512 114.841 397.16 0 256.001 0zm0 493.701c-131.069 0-237.702-106.631-237.702-237.7S124.932 18.299 256.001 18.299s237.702 106.632 237.702 237.7c-.002 131.071-106.635 237.702-237.702 237.702z"/><path d="M393.042 295.723a9.15 9.15 0 0 0-12.941 0c-68.432 68.43-179.778 68.428-248.203 0a9.15 9.15 0 0 0-12.94 12.939c37.788 37.786 87.405 56.674 137.042 56.674 49.623 0 99.263-18.896 137.042-56.674a9.147 9.147 0 0 0 0-12.939zM306.189 383.521a9.148 9.148 0 0 0-11.278-6.341 144.102 144.102 0 0 1-77.821 0c-4.865-1.368-9.916 1.475-11.28 6.34a9.152 9.152 0 0 0 6.34 11.281 162.424 162.424 0 0 0 87.698 0 9.15 9.15 0 0 0 6.341-11.28zM146.723 164.27c-18.666 0-33.852 15.186-33.852 33.852 0 18.666 15.187 33.852 33.852 33.852 18.666 0 33.852-15.186 33.852-33.852 0-18.666-15.185-33.852-33.852-33.852zM365.275 164.27c-18.666 0-33.852 15.186-33.852 33.852s15.186 33.852 33.852 33.852 33.852-15.186 33.852-33.852-15.185-33.852-33.852-33.852z"/><circle cx="155.969" cy="193.507" r="9.15"/><circle cx="374.338" cy="193.507" r="9.15"/></svg>