<svg width="1584" height="1141" xmlns="http://www.w3.org/2000/svg" style="background:#f7faf7"><g fill="none" fill-rule="evenodd" stroke-width="4"><ellipse stroke="#FF6B6B" fill-opacity=".25" fill="#FF6B6B" cx="593.5" cy="363.5" rx="22.5" ry="16.5"/><path d="M616 362V242" stroke="#FF6B6B" fill="#FF6B6B" stroke-linecap="square"/><ellipse stroke="#FF6B6B" fill-opacity=".25" fill="#FF6B6B" cx="707.5" cy="330.5" rx="22.5" ry="16.5"/><path d="M730 329V209M617 241l113-33M617 260l113-33" stroke="#FF6B6B" fill="#FF6B6B" stroke-linecap="square"/><ellipse stroke="#292F36" cx="717.5" cy="729.5" rx="22.5" ry="16.5"/><path d="M682 730h70" stroke="#292F36" stroke-linecap="square"/><ellipse stroke="#FFE66D" cx="1236.5" cy="737.5" rx="22.5" ry="16.5"/><path d="M1259 736V616" stroke="#FFE66D" stroke-linecap="square"/><ellipse stroke="#4ECDC4" fill-opacity=".25" fill="#4ECDC4" cx="1438.5" cy="251.5" rx="22.5" ry="16.5"/><path d="M1461 250V130" stroke="#4ECDC4" stroke-linecap="square"/><ellipse stroke="#FFE66D" cx="571.5" cy="824.5" rx="22.5" ry="16.5"/><path d="M549 945V825" stroke="#FFE66D" stroke-linecap="square"/><ellipse stroke="#FFE66D" cx="1236.5" cy="737.5" rx="22.5" ry="16.5"/><path d="M1259 736V616" stroke="#FFE66D" stroke-linecap="square"/><ellipse stroke="#FFE66D" cx="213.5" cy="623.5" rx="22.5" ry="16.5"/><path d="M236 622V502" stroke="#FFE66D" stroke-linecap="square"/><ellipse stroke="#4ECDC4" fill-opacity=".25" fill="#4ECDC4" cx="166.5" cy="887.5" rx="22.5" ry="16.5"/><path d="M144 1007V887" stroke="#4ECDC4" stroke-linecap="square"/><ellipse stroke="#4ECDC4" fill-opacity=".25" fill="#4ECDC4" cx="517.5" cy="140.5" rx="22.5" ry="16.5"/><path d="M495 260V140" stroke="#4ECDC4" stroke-linecap="square"/><ellipse stroke="#FF6B6B" fill-opacity=".25" fill="#FF6B6B" cx="1418.5" cy="386.5" rx="22.5" ry="16.5"/><path d="M1396 506V386M1282 476l112 30M1282 458l112 30" stroke="#FF6B6B" fill="#FF6B6B" stroke-linecap="square"/><ellipse stroke="#FF6B6B" fill-opacity=".25" fill="#FF6B6B" cx="616.5" cy="1058.5" rx="22.5" ry="16.5"/><path d="M639 1057V937" stroke="#FF6B6B" fill="#FF6B6B" stroke-linecap="square"/><ellipse stroke="#FF6B6B" fill-opacity=".25" fill="#FF6B6B" cx="730.5" cy="1025.5" rx="22.5" ry="16.5"/><path d="M753 1024V904M640 936l113-33M640 955l113-33" stroke="#FF6B6B" fill="#FF6B6B" stroke-linecap="square"/><ellipse stroke="#292F36" cx="131.5" cy="216.5" rx="22.5" ry="16.5"/><path d="M96 217h70" stroke="#292F36" stroke-linecap="square"/><ellipse stroke="#292F36" cx="1201.5" cy="102.5" rx="22.5" ry="16.5"/><path d="M1166 103h70" stroke="#292F36" stroke-linecap="square"/><ellipse stroke="#292F36" cx="1040.5" cy="830.5" rx="22.5" ry="16.5"/><path d="M1005 831h70" stroke="#292F36" stroke-linecap="square"/><ellipse stroke="#FF6B6B" fill-opacity=".25" fill="#FF6B6B" cx="1304.5" cy="353.5" rx="22.5" ry="16.5"/><path d="M1282 473V353" stroke="#FF6B6B" fill="#FF6B6B" stroke-linecap="square"/><ellipse stroke="#4ECDC4" fill-opacity=".25" fill="#4ECDC4" cx="1370.5" cy="1042.5" rx="22.5" ry="16.5"/><path d="M1393 1041V921" stroke="#4ECDC4" stroke-linecap="square"/></g></svg>