<svg xmlns="http://www.w3.org/2000/svg" viewBox="0 0 445.744 445.744"><path d="M444.006 17.919l-16.181-16.18A5.898 5.898 0 0 0 423.626 0a5.903 5.903 0 0 0-4.2 1.739l-6.446 6.446-2.49-2.495a4 4 0 0 0-5.662 5.652l2.496 2.5-6.443 6.443c-2.234 2.234-2.291 5.808-.214 8.139l-9.092 8.5-3.164-3.164a4 4 0 0 0-5.657 5.657l2.974 2.974-5.399 5.048-3.297-3.297a4 4 0 0 0-5.657 5.657l3.106 3.106-93.614 87.519c-30.703-22.017-66.828-23.665-86.897-3.595-8.368 8.368-14.115 16.231-18.073 24.729-1.83 3.128-6.021 8.67-13.979 11.765a7.767 7.767 0 0 0-4.95 7.153 7.807 7.807 0 0 0 4.774 7.322c.081.035 1.074.514 1.074.514 1.148.474 1.995 1.124 2.578 1.975 1.677 2.462.944 6.944-1.961 11.991-3.505 6.088-9.58 12.263-17.106 17.39-7.518 5.126-15.483 8.519-22.43 9.553-5.846.871-10.178-.066-11.88-2.563-.066-.1-.712-1.134-2.977-6.408-1.148-2.659-3.744-4.342-6.655-4.312a7.11 7.11 0 0 0-6.523 4.48 27.81 27.81 0 0 1-6.174 9.387c-2.998 2.998-6.682 5.267-10.65 6.562-15.705 5.1-28.661 12.451-37.468 21.256-14.608 14.609-19.667 35.753-14.244 59.54 4.75 20.832 17.036 42.314 34.726 60.876L1.173 438.916a4 4 0 1 0 5.658 5.657l60.876-60.876c18.559 17.69 40.041 29.975 60.874 34.724 6.225 1.419 12.268 2.12 18.062 2.12 16.343 0 30.691-5.58 41.477-16.365 8.798-8.798 16.151-21.75 21.266-37.457 2.482-7.637 8.292-13.774 15.922-16.829a7.12 7.12 0 0 0 2.435-1.589c1.661-1.661 2.386-4.049 1.94-6.388a7.135 7.135 0 0 0-4.197-5.211c-5.172-2.222-6.233-2.863-6.396-2.971-2.461-1.676-3.418-6.116-2.561-11.876 1.034-6.947 4.425-14.917 9.547-22.438 5.126-7.526 11.301-13.601 17.389-17.104 5.123-2.948 9.496-3.66 11.993-1.958.853.583 1.502 1.432 1.986 2.593l.499 1.052c1.25 2.946 4.117 4.831 7.323 4.777a7.769 7.769 0 0 0 7.155-4.955c3.118-7.99 8.652-12.155 11.769-13.963 8.502-3.973 16.363-9.724 24.724-18.083 20.066-20.066 18.414-56.186-3.601-86.885l92.329-98.758 3.273 3.273a3.989 3.989 0 0 0 2.829 1.172 3.999 3.999 0 0 0 2.828-6.828l-3.464-3.464 5.048-5.4 3.141 3.141c.781.781 1.805 1.171 2.829 1.171s2.047-.391 2.829-1.171a4 4 0 0 0 0-5.657l-3.331-3.331 3.688-3.945a5.89 5.89 0 0 0 3.95 1.513 5.903 5.903 0 0 0 4.2-1.739l6.44-6.44 2.499 2.499c.781.781 1.805 1.171 2.829 1.171s2.047-.391 2.829-1.171a4 4 0 0 0 0-5.657l-2.499-2.499 6.449-6.449a5.954 5.954 0 0 0-.003-8.403zm-38.22 16.67l5.371 5.371-27.728 29.659-7.302-7.302 29.659-27.728zm-27.824 40.877L221.513 242.811l-18.578-18.578L370.28 67.784l7.682 7.682zM108.209 343.424l-5.888-5.888 22.759-34.274 17.403 17.403-34.274 22.759zm-11.031.284l4.86 4.86-29.08 29.08c-.825-.79-1.65-1.578-2.463-2.39-.815-.815-1.605-1.643-2.397-2.47l29.08-29.08zm217.487-133.599c1.632 18.7-5.304 29.903-11.409 36.008-7.729 7.729-14.91 12.991-22.596 16.56l-.3.154c-3.95 2.256-11.13 7.531-15.223 17.655-.15-.342-.287-.646-.443-.927-1.08-2.45-2.667-4.402-4.725-5.811-5.214-3.554-12.492-2.975-20.495 1.63-7.112 4.093-14.219 11.03-20.011 19.534-12.929 18.987-15.026 38.517-4.886 45.424.658.451 1.902 1.156 5.919 2.92-8.941 4.164-15.708 11.717-18.72 20.987-4.658 14.304-11.518 26.477-19.315 34.274-8.908 8.909-25.179 18.241-52.103 12.102-17.387-3.963-35.341-13.642-51.475-27.584l31.358-31.358 44.813-29.757-31.229-31.229-29.757 44.813-31.358 31.358c-13.943-16.136-23.623-34.091-27.587-51.477-6.139-26.924 3.192-43.195 12.101-52.104 7.805-7.804 19.979-14.66 34.287-19.306 5.165-1.685 9.948-4.628 13.832-8.512 2.97-2.97 5.367-6.4 7.143-10.218 2.026 4.608 2.637 5.504 2.916 5.914 3.554 5.213 10.541 7.335 19.673 5.976 8.116-1.208 17.264-5.064 25.757-10.855 8.501-5.791 15.439-12.896 19.534-20.009 4.607-8.001 5.189-15.276 1.633-20.498-1.415-2.062-3.367-3.647-5.808-4.717a11.637 11.637 0 0 0-.933-.45c10.081-4.062 15.382-11.246 17.658-15.202l.164-.316c3.552-7.682 8.81-14.864 16.547-22.6 11.067-11.068 25.692-12.315 36.018-11.417 13.122 1.145 26.897 6.42 39.244 14.944l-83.459 78.026 30.278 30.278 78.016-83.449c8.521 12.343 13.796 26.116 14.941 39.239zM421.26 37.752l-13.267-13.267 15.632-15.632 13.267 13.267-15.632 15.632z"/><path d="M172.841 232.982a11.382 11.382 0 0 0-8.101-3.356 11.382 11.382 0 0 0-8.101 3.355l-28.646 28.646a3.458 3.458 0 0 1-4.887 0 3.449 3.449 0 0 1 0-4.873l1.575-1.575a4 4 0 0 0 0-5.657l-1.479-1.479a4 4 0 0 0-6.639 4.048c-3.554 4.489-3.259 11.048.886 15.193a11.421 11.421 0 0 0 8.101 3.35c2.934 0 5.868-1.116 8.101-3.35l28.646-28.647c1.305-1.306 3.581-1.307 4.887 0a3.42 3.42 0 0 1 1.009 2.436 3.42 3.42 0 0 1-1.009 2.436l-1.575 1.575a4.002 4.002 0 0 0-.001 5.658l1.479 1.479a4 4 0 0 0 6.639-4.048c3.555-4.487 3.259-11.046-.885-15.191zm24.73 39.037a4 4 0 0 0-4.048 6.639l1.479 1.479a4 4 0 0 0 5.658-.001l1.574-1.575a3.45 3.45 0 0 1 4.873 0 3.46 3.46 0 0 1 0 4.888l-28.647 28.647c-4.466 4.467-4.466 11.735 0 16.201a11.412 11.412 0 0 0 8.093 3.347c2.513 0 5.027-.82 7.099-2.461a4 4 0 0 0 4.049-6.638l-1.479-1.479a4 4 0 0 0-5.657 0l-1.575 1.575a3.449 3.449 0 0 1-4.873 0 3.458 3.458 0 0 1 0-4.887l28.647-28.646c4.466-4.466 4.466-11.734 0-16.202-4.145-4.145-10.702-4.44-15.193-.887z"/></svg>