<svg xmlns="http://www.w3.org/2000/svg" viewBox="0 0 550.033 550.033"><path d="M546.692 78.839c-5.09-15.269-15.704-31.489-29.887-45.671-14.183-14.184-30.402-24.797-45.672-29.887-17.02-5.672-31.241-3.951-40.043 4.849-3.046 3.045-4.543 7.72-4.576 14.288-.18 33.084-13.209 65.063-36.688 90.055l-59.785 60.091a21.58 21.58 0 0 0-10.146-2.511 21.538 21.538 0 0 0-15.332 6.35 21.543 21.543 0 0 0-6.351 15.333c0 3.639.892 7.139 2.567 10.254l-43.04 43.263-5.461-5.461 4.763-4.763a7.5 7.5 0 0 0-10.607-10.607L86.021 384.833a7.5 7.5 0 1 0 10.608 10.607l14.748-14.749 5.826 5.827-83.382 83.815a7.377 7.377 0 0 0-.528.591c-.438.545-10.827 13.514-19.844 28.3-14.178 23.251-17.01 37.909-8.914 46.132 3.063 3.11 7.068 4.677 12.134 4.676 8.377 0 19.65-4.283 34.345-12.943 15.005-8.843 28.204-19.095 28.759-19.526.239-.188.468-.389.684-.604l239.209-238.395a21.554 21.554 0 0 0 10.695 2.832h.001a21.54 21.54 0 0 0 15.333-6.349 21.523 21.523 0 0 0 6.344-15.335 21.537 21.537 0 0 0-2.802-10.628l28.071-27.971a21.554 21.554 0 0 0 10.566 2.764h.017a21.517 21.517 0 0 0 15.317-6.344 21.546 21.546 0 0 0 6.349-15.334c0-3.739-.952-7.327-2.719-10.507l31.598-31.498c24.587-23.592 56.239-36.649 89.141-36.767 4.191-.02 10.231-.511 14.266-4.544 8.8-8.8 10.523-23.021 4.849-40.044zm-133.448 85.29l-26.894-26.894 9.42-9.468 26.933 26.933-9.459 9.429zM375.77 147.87l26.85 26.85-7.172 7.149c-.233-.087-.469-.156-.704-.235-.168-.056-.334-.116-.503-.168a21.967 21.967 0 0 0-1.723-.46 21.187 21.187 0 0 0-1.776-.305c-.158-.021-.316-.034-.474-.052a21.046 21.046 0 0 0-3.241-.113c-.139.006-.279.005-.418.014-.597.035-1.193.093-1.786.177-.071.01-.142.027-.213.038-.514.079-1.025.177-1.533.292-.172.039-.342.084-.513.128-.42.107-.836.226-1.25.358-.172.055-.344.108-.515.168-.473.164-.941.346-1.405.543-.09.039-.183.071-.273.111l-.174.078 9.599-9.6a7.5 7.5 0 0 0-10.607-10.607l-38.22 38.221.032-.081c.041-.095.074-.192.113-.287.197-.475.376-.955.538-1.441.054-.163.104-.327.154-.491.138-.449.261-.902.37-1.358.034-.145.072-.289.103-.435.265-1.222.426-2.462.48-3.709.003-.075.002-.15.005-.225a22.09 22.09 0 0 0-.024-1.977 21.455 21.455 0 0 0-.17-1.772l-.009-.078a21.73 21.73 0 0 0-.898-3.803l-.056-.162c-.099-.29-.191-.581-.302-.867l35.715-35.901zm-79.951 96.484a7.493 7.493 0 0 0-1.931 7.262 28.62 28.62 0 0 0-15.191-6.161l33.351-33.524c.097.037.196.064.293.1.205.075.412.143.619.212a21.612 21.612 0 0 0 1.696.491c.357.087.716.162 1.076.23.208.04.415.083.623.117.433.07.869.122 1.305.166.134.013.267.036.401.047.558.045 1.117.067 1.676.07.041 0 .081.005.122.005.12 0 .239-.015.358-.017a22.32 22.32 0 0 0 2.046-.127c.472-.052.943-.12 1.411-.203.153-.027.307-.046.459-.076a22.004 22.004 0 0 0 1.786-.433c.169-.049.336-.107.504-.159.444-.139.884-.291 1.32-.458.189-.073.378-.146.565-.224.105-.043.212-.08.316-.125l-32.805 32.807zM133.368 443.051l-25.689-25.689 16.616-16.702c-1.147 6.704.845 13.846 6.009 19.011 4.227 4.226 9.778 6.339 15.33 6.339a21.83 21.83 0 0 0 5.583-.747l-17.849 17.788zm-31.455 31.348l-25.554-25.554 20.74-20.848 25.643 25.643-20.829 20.759zm38.998-74.779a6.654 6.654 0 0 1 4.723-1.953c1.71 0 3.42.65 4.722 1.953a6.685 6.685 0 0 1 0 9.444 6.684 6.684 0 0 1-9.444 0 6.684 6.684 0 0 1-.001-9.444zm20.052-10.608c-5.193-5.191-12.383-7.18-19.119-5.993l22.811-22.929c-1.238 6.774.747 14.028 5.974 19.255 4.227 4.226 9.778 6.339 15.329 6.339 1.942 0 3.882-.275 5.767-.792l-25.187 25.101c1.945-7.245.099-15.306-5.575-20.981zm20.273-29.718a6.653 6.653 0 0 1 4.722-1.953c1.711 0 3.421.65 4.723 1.953a6.684 6.684 0 0 1 0 9.443 6.684 6.684 0 0 1-9.444 0 6.683 6.683 0 0 1-.001-9.443zm20.052-10.607c-5.254-5.253-12.557-7.236-19.362-5.958l20.356-20.461c.682 6.286 3.42 12.389 8.228 17.197 5.124 5.124 11.718 7.896 18.436 8.334L206.82 369.85c2.024-7.292.19-15.44-5.532-21.163zm16.111-32.369l8.129 8.129c1.465 1.464 3.385 2.196 5.304 2.196s3.839-.732 5.304-2.196a7.5 7.5 0 0 0 0-10.607l-8.129-8.129a13.696 13.696 0 0 1 12.54 3.717c5.356 5.357 5.356 14.073 0 19.43-5.355 5.357-14.074 5.357-19.43 0-3.4-3.401-4.633-8.152-3.718-12.54zm33.755-17.496a28.605 28.605 0 0 0-17.345-8.246l13.543-13.614a28.602 28.602 0 0 0 8.254 17.407c5.16 5.16 11.81 7.937 18.578 8.344l-14.689 14.639c-.417-6.751-3.193-13.382-8.341-18.53zm11.341-27.6l8.129 8.129c1.465 1.464 3.385 2.196 5.304 2.196s3.839-.732 5.304-2.196a7.5 7.5 0 0 0 0-10.607l-8.129-8.129a13.692 13.692 0 0 1 12.539 3.718c5.357 5.356 5.357 14.073 0 19.43-5.355 5.357-14.073 5.356-19.429.001-3.4-3.401-4.634-8.153-3.718-12.542zm52.675-84.214a6.639 6.639 0 0 1 4.726-1.956c1.787 0 3.466.695 4.727 1.957l.01.009c.138.137.27.28.355.379 2.238 2.63 2.073 6.607-.375 9.056-2.435 2.435-6.392 2.612-9.011.401l-.113-.094a3.885 3.885 0 0 1-.319-.299 6.634 6.634 0 0 1-1.956-4.726 6.636 6.636 0 0 1 1.956-4.727zm-68.01 68.879l-34.399 34.578-5.578-5.578 34.488-34.488 5.489 5.488zM121.984 370.086l74.592-74.592 5.606 5.606-74.399 74.785-5.799-5.799zM70.205 505.998c-2.079 1.595-13.149 9.983-25.459 17.367-22.212 13.323-28.742 11.724-29.501 11.452-.255-.773-1.692-7.337 11.865-29.172 7.569-12.19 16.117-23.107 17.639-25.027l21.03-21.139 25.509 25.509-21.083 21.01zm234.396-233.597a28.642 28.642 0 0 0-5.666-15.571 7.481 7.481 0 0 0 7.492-1.868l4.191-4.191-.041.096c-.054.121-.098.244-.15.365-.18.424-.349.851-.501 1.284-.068.193-.129.386-.191.581-.122.379-.232.76-.332 1.145a20.51 20.51 0 0 0-.15.592 21.61 21.61 0 0 0-.266 1.355c-.021.124-.049.247-.067.371a22.007 22.007 0 0 0-.18 1.7c-.013.192-.015.384-.023.576a22.078 22.078 0 0 0-.001 1.847c.017.382.046.763.082 1.144.02.207.035.413.061.619.071.562.157 1.122.272 1.679.023.114.057.225.083.338.102.458.217.914.35 1.366.062.21.132.418.2.626.066.202.122.406.194.606l-5.357 5.34zm30.486-7.959c-2.606 2.605-6.847 2.605-9.447.006a6.998 6.998 0 0 1-.549-.628c-2.073-2.642-1.836-6.435.552-8.822.281-.281.584-.526.9-.747.03-.021.058-.045.088-.065.3-.203.615-.374.938-.523.052-.024.104-.05.157-.073a6.711 6.711 0 0 1 1.173-.378 6.683 6.683 0 0 1 1.22-.156c.193-.007.386.007.58.016.215.011.431.021.645.053.147.021.291.06.437.092.229.05.459.098.684.173.13.043.255.105.383.157.228.092.457.179.677.297.2.108.388.245.579.375.139.094.284.17.418.276a6.2 6.2 0 0 1 .55.497l.007.007a6.646 6.646 0 0 1 1.96 4.727 6.622 6.622 0 0 1-1.952 4.716zm2.68-25.104c-.222-.081-.448-.144-.671-.217-.183-.06-.365-.123-.55-.178a21.328 21.328 0 0 0-1.544-.399c-.058-.013-.115-.03-.173-.042a21.702 21.702 0 0 0-1.714-.282c-.192-.024-.385-.039-.578-.059a21.6 21.6 0 0 0-1.831-.108 22.49 22.49 0 0 0-1.218.018c-.183.008-.365.009-.548.021a21.77 21.77 0 0 0-1.708.178c-.132.019-.262.049-.394.071-.447.073-.891.158-1.333.26-.203.047-.405.101-.607.153-.379.098-.755.207-1.128.326-.2.064-.4.126-.598.196-.426.15-.846.315-1.263.492-.129.054-.26.101-.388.158l-.108.048 22.392-22.392a7.527 7.527 0 0 0 1.041-.861 7.53 7.53 0 0 0 .862-1.042l22.417-22.418-.068.155c-.042.095-.076.192-.117.287a21.58 21.58 0 0 0-.539 1.391c-.057.166-.11.332-.163.499-.136.426-.259.855-.369 1.287-.039.154-.08.306-.115.461a21.768 21.768 0 0 0-.328 1.711l-.004.023c-.09.617-.15 1.236-.186 1.858-.005.08-.005.16-.009.24a21.749 21.749 0 0 0 .125 3.588c.006.052.01.105.017.158.157 1.253.427 2.494.805 3.712.017.055.036.109.054.163.095.299.185.599.294.895l-29.755 29.649zm54.833-32.41a6.618 6.618 0 0 1-4.711 1.95h-.005a6.648 6.648 0 0 1-4.728-1.962 7.577 7.577 0 0 1-.506-.556 6.664 6.664 0 0 1 1.421-9.637c.028-.02.055-.042.083-.061.307-.208.629-.382.959-.534.047-.021.093-.045.14-.065.323-.139.655-.249.992-.335.059-.015.117-.03.176-.043a6.563 6.563 0 0 1 1.013-.148c.062-.004.125-.006.188-.009.24-.01.479.008.718.024.17.011.341.018.51.042.217.031.43.087.644.14.161.04.324.071.483.123.229.076.45.181.672.283.135.062.274.11.406.181.326.177.639.386.94.623.021.016.044.027.064.043.187.149.362.308.539.485h.001c1.261 1.261 1.955 2.939 1.955 4.727s-.692 3.467-1.954 4.729zm138.905-98.93c-.396.134-1.529.42-3.988.431-34.346.123-67.428 12.824-93.956 35.913l-27.522-27.522c22.745-26.813 35.29-60.006 35.476-94.324.013-2.468.316-3.626.45-4.018 4.591-4.265 13.456-4.622 24.426-.967 13.103 4.367 27.24 13.694 39.809 26.263 12.568 12.567 21.896 26.705 26.263 39.809 3.652 10.958 3.297 19.821-.958 24.415zM444.311 95.53c-1.953 3.841-4.141 7.199-6.502 9.984a7.486 7.486 0 0 1-5.725 2.649 7.5 7.5 0 0 1-5.717-12.35c1.586-1.87 3.167-4.319 4.572-7.082a7.5 7.5 0 1 1 13.372 6.799zm17.706-68.523c-.14 1.854-.238 3.895-.344 6.055-.504 10.368-1.132 23.273-6.738 37.679a76.558 76.558 0 0 1-4.15 8.913 7.5 7.5 0 1 1-13.16-7.2 61.223 61.223 0 0 0 3.332-7.154c4.722-12.132 5.26-23.201 5.734-32.967.11-2.262.214-4.397.367-6.447a7.5 7.5 0 0 1 14.959 1.121zM77.888 491.721l-12.58 12.58A7.502 7.502 0 0 1 54.7 504.3l-8.221-8.222a7.5 7.5 0 0 1 0-10.606l12.58-12.58a7.502 7.502 0 0 1 10.608.001l8.221 8.222a7.501 7.501 0 0 1 0 10.606z"/></svg>