<svg xmlns="http://www.w3.org/2000/svg" viewBox="0 0 60 60"><path d="M60 19.787c0-3.316-2.688-6.359-7.598-8.665l6.866-6.866a2.502 2.502 0 0 0 0-3.535c-.944-.945-2.592-.945-3.536 0l-8.497 8.497C42.215 7.763 36.278 6.988 30 6.988c-6.278 0-12.215.774-17.235 2.229L4.268.721c-.944-.945-2.592-.945-3.536 0a2.502 2.502 0 0 0 0 3.535l6.866 6.866C2.688 13.428 0 16.471 0 19.787c0 .053.008.105.009.157-.001.016-.009.029-.009.044v27c0 7.29 13.178 13 30 13 16.749 0 29.884-5.66 29.996-12.968.003-.032.004-.064.004-.096V19.988c0-.015-.008-.028-.009-.043.002-.053.009-.105.009-.158zm-32.158 13.07c.55.016 1.105.027 1.664.031l-7.41 17.333-6.576-18.905c3.564.841 7.587 1.373 11.892 1.527l.43.014zm4.745-.014c5.516-.197 10.562-1.019 14.782-2.309l-7.429 19.77-7.463-17.456.11-.005zM20.711 52.325c-5.958-.87-11.066-2.54-14.431-4.661l7.555-15.109 6.876 19.77zM31 34.481l7.665 17.93a65.676 65.676 0 0 1-15.429.231L31 34.481zm18.033-2.69l6.86 14.205c-2.747 2.618-7.983 4.773-14.441 5.97l7.581-20.175zm8.114-29.656a.501.501 0 0 1 .707.707l-7.427 7.427h-.001L38.319 22.375c-.442.442-.916.861-1.41 1.246l-1.748 1.359c-.024.019-.043.033-.065.034-.022.002-.046-.009-.08-.044-.028-.028-.033-.047-.036-.065-.004-.027.005-.051.027-.078l1.36-1.749c.382-.491.801-.966 1.245-1.41L57.147 2.135zm-55 0a.501.501 0 0 1 .707-.001l7.732 7.732 11.801 11.801c.444.444.863.919 1.246 1.411l1.359 1.748c.016.02.026.037.03.055l.005.009c.002.022-.01.046-.044.081-.068.065-.096.046-.144.009l-1.748-1.359c-.218-.169-.414-.368-.623-.55-.265-.231-.542-.45-.788-.696L9.574 10.269 2.146 2.842a.501.501 0 0 1 .001-.707zm6.958 10.494l11.16 11.16c.499.499 1.036.974 1.597 1.41l1.748 1.359c.01.008.021.013.031.02.094.071.19.134.29.188.042.023.085.037.128.057.07.032.14.065.212.089.049.016.099.026.149.038.067.017.134.034.202.044.052.008.105.01.157.013.045.003.089.011.133.011.019 0 .037-.005.056-.006.078-.002.154-.012.231-.023.051-.007.101-.012.151-.024.08-.018.158-.045.236-.073.045-.016.091-.028.136-.048.084-.037.164-.084.244-.132.036-.022.073-.038.108-.062.102-.07.2-.152.293-.243.009-.009.02-.015.029-.024.775-.775.847-1.921.174-2.787l-1.36-1.747a17.05 17.05 0 0 0-1.41-1.598l-9.418-9.418C18.992 9.625 24.351 8.988 30 8.988s11.007.637 15.617 1.848l-9.419 9.418c-.502.503-.976 1.04-1.409 1.597l-1.36 1.748a2.191 2.191 0 0 0-.328.602c-.011.03-.028.059-.037.089-.013.041-.017.083-.027.125-.02.08-.042.16-.052.242-.009.074-.006.149-.007.223-.001.049-.007.097-.004.146a2.1 2.1 0 0 0 .63 1.36c.013.013.028.021.041.034.089.085.182.164.279.231.041.028.085.048.127.073.073.043.146.087.223.121.051.023.104.037.157.055.071.024.141.049.213.066.057.013.114.019.172.027.07.01.139.019.21.021.021.001.041.006.062.006.049 0 .098-.009.148-.013.046-.003.091-.005.137-.012.075-.011.149-.029.224-.049.043-.011.086-.019.128-.033.08-.026.159-.062.237-.099.035-.016.07-.028.104-.046.111-.06.22-.129.324-.21l1.749-1.359a17.325 17.325 0 0 0 1.596-1.409l11.161-11.161C55.483 14.628 58 17.156 58 19.787c0 .053-.009.106-.011.159l-.001.003C57.756 25.881 44.938 30.893 30 30.893S2.244 25.881 2.011 19.949l-.001-.003c-.001-.053-.01-.105-.01-.159 0-2.631 2.517-5.159 7.105-7.158zm3.507 17.899L4.64 46.472c-1.622-1.362-2.567-2.862-2.629-4.427-.001-.017-.01-.03-.011-.046V24.572c2.124 2.432 5.834 4.493 10.612 5.956zM58 46.988c0 5.963-12.822 11-28 11S2 52.951 2.003 46.946A.992.992 0 0 0 2 46.837v-.19c4.304 4.919 15.134 8.341 28 8.341s23.696-3.423 28-8.342v.277h.002c-.002.022-.002.044-.002.065zm0-4.99c-.001.017-.011.03-.011.047-.03.766-.273 1.515-.7 2.242l-7.111-14.724c3.44-1.351 6.132-3.054 7.822-4.99v17.425z"/></svg>