<svg height="512pt" viewBox="0 -9 512 512" width="512pt" xmlns="http://www.w3.org/2000/svg"><path d="M454.723 54.941c-3.082-2.515-8.438-4.812-16.426-1.464-5.926 2.484-12.617 7.968-18.356 15.043-5.421 6.687-8.91 13.378-9.336 17.902-.136 1.48-.199 3.691.872 5.808 1.566 3.106 4.832 4.801 8.933 4.801 1.281 0 2.645-.168 4.063-.508 4.011-.957 11.62-5.554 18.511-11.175 6.086-4.965 13.684-12.387 15.32-19.555.985-4.313-.288-8.168-3.581-10.852zM450.44 64c-1.984 8.707-22.277 23.352-27.843 24.684-2.23.53-3.707.16-3.926-.086-.016-.032-.14-.328-.04-1.422.513-5.434 11.856-21.684 22.782-26.258 5.203-2.184 7.469-.336 8.215.273.777.633 1.16 1.297.812 2.809zm0 0"/><path d="M511.64 26.594C506.05 14.262 494.985 4.539 482.036.582c-1.469-.45-3.078-.809-4.883-.41-2.195.48-3.66 1.863-4.625 2.781L444.5 29.5a23.57 23.57 0 0 0-3.91.531c-7.922 1.785-14.86 8.864-20.438 14.555-1.402 1.437-2.734 2.789-3.96 3.945a413.627 413.627 0 0 0-24.528 25.145c-2.672 2.984-5.172 5.988-6.375 9.883-.668 2.16-.851 4.277-.695 6.355-.332.16-.656.352-.946.613-45.066 40.551-89.562 81.828-133.335 123.282-2.286-2.395-5.32-4.059-8.583-4.645-5.046-.906-9.574.785-12.476 2.36-3.535 1.917-6.445 4.57-8.895 6.902-3.636 3.465-7.671 7.629-9.562 13.199-2.09 6.148-.688 12.695 3.367 16.594-3.324 3.18-6.625 6.36-9.937 9.543-2.559-2-5.95-4.43-10.23-4.68-6.06-.363-10.9 3.89-13.786 6.426l-7.707 6.773c-3.356 2.946-7.527 6.614-9.426 11.856-1.863 5.144-.726 12.011 4.035 15.422a12416.226 12416.226 0 0 0-37.3 36.343c-3.043-2.687-7.43-5.507-12.641-4.539-3.79.707-6.547 3.23-8.559 5.074a4438.322 4438.322 0 0 0-72.425 67.864c-.024.023-.043.05-.067.078-5.816.66-11.531 3.719-15.808 8.496-8.329 9.309-9.743 23.797-3.418 34.555-3.836 3.816-7.684 7.648-11.5 11.449C3.5 454.766.64 457.617.094 461.668c-.703 5.184 2.765 9.45 4.43 11.5a148.82 148.82 0 0 0 14.726 15.66c3.367 3.098 7.496 6.254 12.613 6.254h.145c4.281-.05 7.75-2.266 10.937-4.531a417.184 417.184 0 0 0 43.664-35.766c3.063 2.445 6.961 4.09 11.211 4.59 1.024.121 2.059.18 3.114.18 4.53 0 9.406-1.114 14.8-3.368 4.63-1.937 8.09-4.039 10.895-6.617 7.223-6.64 10.027-17.523 7.418-26.922.144.02.289.047.437.063a26.39 26.39 0 0 0 3.114.184c4.53-.004 9.406-1.114 14.8-3.368 4.63-1.937 8.09-4.039 10.895-6.617 6.023-5.543 8.969-14.039 8.266-22.164a2310.436 2310.436 0 0 0 35.43-30.344c1.355-1.183 3.874-3.386 4.195-6.8.199-2.125-.575-3.97-.989-4.961a62.008 62.008 0 0 0-4.187-8.215 12495.42 12495.42 0 0 0 30.5-29.223c.71.41 1.469.98 2.258 1.586 2.039 1.563 4.574 3.508 8.03 3.703.184.012.372.016.552.016 1.843 0 3.5-.512 4.898-1.028a40.211 40.211 0 0 0 20.535-17.023c2.414-4.035 3.692-7.816 3.899-11.566.234-4.176-1.024-8.215-3.403-11.184 2.758-2.672 5.516-5.34 8.27-8.016 2.39 2.97 6.09 3.04 8.965 3.082.086.004.164.004.25.004 4.925 0 9.21-2.297 12.023-4.035a53.228 53.228 0 0 0 17.246-17.285c1.328-2.16 2.727-4.789 3-7.91.38-4.297-1.457-8.02-3.426-10.969A12478.428 12478.428 0 0 0 431.11 120.023a3.993 3.993 0 0 0 1.125-2.32c6.371-3.445 11.563-8.426 15.97-12.918a280.678 280.678 0 0 0 24.237-28.219c3.043-4.062 6.11-8.472 7.204-13.812a20.13 20.13 0 0 0 .293-1.918c.457-.258.878-.59 1.214-1.031a139.729 139.729 0 0 1 29.168-28.282 4.016 4.016 0 0 0 1.32-4.93zM218.43 234.223c1.304-3.844 4.55-7.153 7.492-9.957 2.07-1.977 4.508-4.207 7.172-5.653 2.508-1.36 5.07-1.894 7.215-1.511 1.554.277 3.046 1.101 4.156 2.25a9368.47 9368.47 0 0 0-24.445 23.277c-2.262-1.836-2.532-5.645-1.59-8.406zm-46.168 53.054c-1.907-.836-2.426-4.12-1.602-6.394 1.195-3.297 4.367-6.086 7.164-8.543l7.711-6.774c2.645-2.328 5.434-4.574 7.992-4.437 1.512.09 3.098 1.027 4.813 2.289-8.45 8.125-16.863 16.246-25.246 24.36a4.126 4.126 0 0 0-.832-.5zm-58.203 49.106c1.367-1.25 3.066-2.809 4.586-3.09 1.671-.313 3.543.746 5.37 2.277a16116.147 16116.147 0 0 0-70.433 69.414c-1.934-2.254-4.453-4.027-7.277-5.187a4450.998 4450.998 0 0 1 67.754-63.414zm.836 19.77l15.8 16.609c-3.285 2.683-6.156 6.058-8.465 9.832l-16.613-17.668c3.035-2.985 6.082-5.977 9.13-8.969.05.063.093.133.148.195zm-28.047 61.144a180.009 180.009 0 0 1-16.063-18c2.707-2.68 5.399-5.348 8.113-8.031a277.359 277.359 0 0 0 15.868 17.597c-2.993 2.313-5.676 5.188-7.918 8.434zm15.148-12.574a267.29 267.29 0 0 1-17.336-19.141c5.059-4.996 10.117-9.992 15.207-15l18.235 19.39c.132.141.28.255.43.372-1.145 3.222-1.887 6.578-2.126 9.941a30.181 30.181 0 0 0 .008 4.531c-4.676-1.539-9.719-1.77-14.418-.093zm-75.672 7.53c3.113-3.48 7.227-5.64 11.281-5.921 3.997-.285 8.04 1.473 10.211 4.367-8.355 8.29-16.66 16.543-24.93 24.77-3.355-7.489-2.042-17.09 3.438-23.215zM38.27 483.98c-2.235 1.59-4.403 3.02-6.356 3.043h-.05c-2.344 0-4.825-1.984-7.157-4.128a140.996 140.996 0 0 1-13.926-14.81c-1.449-1.784-2.902-3.812-2.699-5.335.184-1.348 1.813-2.973 3.004-4.16 17.762-17.7 35.766-35.59 53.937-53.586 5.243 6.664 10.954 13.027 17.04 18.914.242.234.511.418.792.582-1.71 3.969-2.808 8.203-3.109 12.45-.32 4.55.266 8.327 1.793 11.546a408.8 408.8 0 0 1-43.27 35.484zm82.902-40.343c-2.094 1.926-4.809 3.55-8.547 5.113-5.336 2.234-9.871 3.09-13.86 2.621-4.453-.527-8.35-3-9.93-6.3-.929-1.938-1.269-4.407-1.046-7.551.723-10.254 7.137-20.387 15.594-24.641 1.707-.856 3.558-1.242 5.449-1.242 6.516 0 13.461 4.574 16.281 10.105 3.614 7.094 1.922 16.508-3.941 21.895zm36.664-36.66c-2.094 1.925-4.809 3.55-8.547 5.113-5.34 2.23-9.871 3.086-13.86 2.617-4.452-.523-8.35-2.996-9.929-6.297-.93-1.937-1.27-4.41-1.05-7.555.726-10.253 7.14-20.382 15.597-24.636 1.707-.856 3.558-1.242 5.45-1.242 6.515 0 13.46 4.574 16.276 10.105 3.618 7.094 1.922 16.504-3.937 21.895zm44.922-55.223c.219.523.347.883.387 1.074-.149.281-.641.79-1.465 1.508a2342.211 2342.211 0 0 1-32.399 27.793c-.11-.234-.207-.477-.32-.707a23.797 23.797 0 0 0-2.277-3.598c11.109-10.52 22.222-21.074 33.328-31.664a53.727 53.727 0 0 1 2.746 5.594zm65.875-65.305c-.133 2.375-1.067 5.024-2.77 7.871-3.687 6.16-9.664 11.118-16.402 13.598-.762.281-1.625.57-2.207.531-.977-.058-2.238-1.027-3.578-2.054-.39-.297-.793-.606-1.215-.915 8.336-8.023 16.668-16.058 24.984-24.109.86 1.367 1.293 3.168 1.188 5.078zm46.37-45.605c-.128 1.449-1 3.035-1.839 4.394a45.088 45.088 0 0 1-14.617 14.653c-3.176 1.964-5.695 2.843-7.906 2.828-.957-.016-2.368-.04-2.883-.196a3.01 3.01 0 0 1-.188-.496c-.011-.047-.039-.086-.054-.132 8.738-8.497 17.464-17.004 26.18-25.524.878 1.547 1.433 3.047 1.308 4.473zm-2.858-14.235c-.118.07-.239.13-.348.211-.402.305-.723.68-.973 1.082a12551.353 12551.353 0 0 1-149.926 144.293c-6.636-4.832-15.46-6.98-23.195-3.765l-16.965-17.836c-.09-.094-.191-.16-.285-.246 85.54-83.914 174.922-169.47 266.617-252.043 1.922 3.847 4.696 7.465 7.532 10.785 3.039 3.562 6.488 7.601 11.289 10.11 3.312 1.73 7.125 2.593 11.117 2.593.328 0 .652-.016.98-.031a12488.183 12488.183 0 0 1-105.843 104.847zM471.75 61.141c-.762 3.707-3.16 7.129-5.758 10.597a272.96 272.96 0 0 1-23.539 27.407c-4.383 4.46-9.566 9.46-15.676 12.312-6.05 2.824-12.465 3.047-17.152.598-3.418-1.79-6.2-5.047-8.89-8.2-4.825-5.644-9.516-12.19-7.743-17.91.727-2.347 2.551-4.511 4.68-6.89a405.452 405.452 0 0 1 24.047-24.653c1.344-1.265 2.726-2.68 4.195-4.172 4.832-4.933 10.844-11.07 16.445-12.332 7.133-1.605 17.07 1.895 23.621 8.325 2.747 2.691 7.149 8.21 5.77 14.918zm6.68-10.805c-1.403-3.469-3.676-6.809-6.801-9.871-4.692-4.602-10.68-7.965-16.75-9.692l23.195-21.968c.2-.188.578-.547.817-.72.14.024.382.087.789.208 9.734 2.977 18.191 9.871 23.156 18.742a147.565 147.565 0 0 0-24.406 23.3zm0 0"/><path d="M319.379 175.395c-6.078-.95-13.168 2.152-17.64 7.73-4.087 5.105-5.165 11.238-2.958 16.828 2.121 5.367 7.453 9.176 12.969 9.258.066 0 .129.004.195.004 3.59 0 7.344-1.48 10.86-4.285 3.14-2.504 5.422-5.399 6.777-8.606 1.645-3.89 1.797-8.207.41-11.836-1.933-5.093-5.703-8.324-10.613-9.093zm2.777 17.789c-.812 1.93-2.328 3.808-4.375 5.441-1.469 1.172-3.668 2.55-5.91 2.527-2.3-.035-4.652-1.785-5.59-4.16-1.527-3.867.442-7.191 1.754-8.824 2.363-2.953 6.027-4.883 9.074-4.883.348 0 .692.024 1.02.074 2.012.317 3.43 1.625 4.332 3.996.648 1.711.539 3.836-.305 5.829zm0 0M290.281 205.25c-6.086-.953-13.172 2.152-17.636 7.734-4.09 5.102-5.168 11.235-2.961 16.825 2.12 5.367 7.453 9.175 12.968 9.261h.196c3.59 0 7.343-1.48 10.863-4.285 3.14-2.504 5.418-5.402 6.773-8.605 1.645-3.89 1.797-8.203.414-11.84-1.937-5.09-5.707-8.32-10.617-9.09zm2.778 17.79c-.817 1.925-2.329 3.808-4.375 5.44-1.47 1.172-3.707 2.563-5.91 2.528-2.301-.035-4.653-1.785-5.59-4.16v-.004c-1.528-3.864.441-7.188 1.754-8.82 2.363-2.954 6.023-4.887 9.074-4.887.347 0 .687.027 1.015.078 2.016.316 3.434 1.625 4.332 3.996.653 1.71.543 3.836-.3 5.828zm0 0M258.742 235.21c-6.078-.956-13.168 2.153-17.637 7.731-4.09 5.106-5.167 11.239-2.96 16.829 2.12 5.367 7.457 9.175 12.972 9.257h.196c3.59 0 7.34-1.476 10.859-4.28 3.14-2.505 5.422-5.403 6.773-8.606 1.649-3.891 1.797-8.207.414-11.84-1.937-5.09-5.707-8.32-10.617-9.09zM261.52 253c-.813 1.926-2.325 3.809-4.375 5.441-1.45 1.157-3.63 2.524-5.829 2.524h-.078c-2.3-.031-4.652-1.781-5.59-4.16-1.527-3.864.442-7.188 1.754-8.82 2.633-3.294 6.88-5.313 10.09-4.81 2.016.317 3.434 1.622 4.332 3.997.653 1.707.54 3.832-.304 5.828zm0 0M229.57 263.2c-6.078-.954-13.168 2.152-17.636 7.73-4.086 5.105-5.168 11.238-2.961 16.828 2.125 5.37 7.457 9.176 12.972 9.258.063.004.13.004.192.004 3.59 0 7.343-1.48 10.863-4.286 3.14-2.504 5.418-5.398 6.773-8.605 1.645-3.89 1.797-8.203.415-11.836-1.938-5.094-5.708-8.324-10.618-9.094zm2.778 17.792c-.813 1.926-2.328 3.805-4.375 5.438-1.45 1.156-3.633 2.527-5.832 2.527h-.078c-2.301-.035-4.653-1.785-5.59-4.16-1.528-3.867.445-7.188 1.754-8.824 2.632-3.29 6.882-5.313 10.093-4.809 2.012.316 3.43 1.625 4.332 3.996.653 1.711.54 3.836-.304 5.832zm0 0M198.035 292.371c-6.078-.957-13.172 2.152-17.64 7.73-4.086 5.106-5.165 11.239-2.958 16.829 2.122 5.367 7.454 9.175 12.97 9.261h.195c3.59 0 7.34-1.48 10.859-4.285 3.144-2.504 5.422-5.402 6.777-8.605 1.645-3.887 1.793-8.203.41-11.836-1.933-5.094-5.707-8.324-10.613-9.094zm2.778 17.793c-.817 1.926-2.329 3.805-4.38 5.438-1.464 1.171-3.64 2.535-5.906 2.527-2.3-.035-4.652-1.785-5.593-4.16-1.528-3.867.445-7.188 1.754-8.824 2.636-3.29 6.882-5.313 10.093-4.81 2.012.317 3.43 1.626 4.332 3.997.653 1.711.543 3.836-.3 5.832zm0 0M163.344 326.273c-6.086-.953-13.172 2.153-17.637 7.735-4.09 5.105-5.168 11.238-2.96 16.824 2.12 5.371 7.452 9.176 12.968 9.262h.195c3.59 0 7.344-1.48 10.86-4.285 3.14-2.504 5.421-5.399 6.777-8.606 1.644-3.887 1.793-8.203.41-11.836-1.934-5.094-5.703-8.32-10.613-9.094zm2.777 17.793c-.816 1.926-2.328 3.805-4.379 5.442-1.465 1.168-3.668 2.566-5.906 2.523-2.3-.035-4.652-1.785-5.594-4.16-1.523-3.863.446-7.187 1.758-8.824 2.363-2.953 6.023-4.883 9.074-4.883.348 0 .688.027 1.016.078 2.015.317 3.43 1.621 4.332 3.996.652 1.707.543 3.832-.3 5.828zm0 0"/></svg>