<svg xmlns="http://www.w3.org/2000/svg" viewBox="0 0 462.47 462.47"><path d="M455.585 10.396c0-6.654-6.179-11.594-12.659-10.142L162.271 62.98a10.39 10.39 0 0 0-8.126 10.142v290.482c-17.386-13.946-40.949-20.093-63.238-20.093-45.419 0-84.022 25.371-84.022 59.48 0 34.096 38.582 59.479 84.022 59.479 45.443 0 84.023-25.384 84.023-59.479V182.254l259.871-58.08V300.88c-17.418-13.969-40.995-20.093-63.238-20.093-45.43 0-84.023 25.376-84.023 59.479 0 34.093 38.577 59.479 84.023 59.479 45.443 0 84.023-25.384 84.023-59.479l-.001-329.87zM434.8 23.368v17.155l-259.87 58.08V81.448l259.87-58.08zM90.907 441.685c-34.279 0-63.237-17.72-63.237-38.694 0-20.976 28.959-38.695 63.237-38.695s63.238 17.72 63.238 38.695-28.96 38.694-63.238 38.694zm84.023-280.728V119.9L434.8 61.819v41.057l-259.87 58.081zM371.562 378.96c-34.279 0-63.238-17.72-63.238-38.694s28.96-38.694 63.238-38.694 63.238 17.72 63.238 38.694-28.959 38.694-63.238 38.694z"/></svg>