<svg xmlns="http://www.w3.org/2000/svg" viewBox="0 0 549.719 549.719"><path d="M488.383 187.321h-84.278c-14.547 0-26.382-11.835-26.382-26.382C377.723 72.197 305.526 0 216.783 0h-50.735C77.306 0 5.108 72.197 5.108 160.939v281.298a7.5 7.5 0 0 0 7.5 7.5h9.529v92.481a7.5 7.5 0 0 0 7.5 7.5h27.247a7.5 7.5 0 0 0 7.5-7.5v-92.481h419.154v92.481a7.5 7.5 0 0 0 7.5 7.5h27.247a7.5 7.5 0 0 0 7.5-7.5v-92.481h11.325a7.5 7.5 0 0 0 7.5-7.5V243.549c0-31.004-25.223-56.228-56.227-56.228zM166.048 15h50.735c80.472 0 145.94 65.468 145.94 145.939 0 22.818 18.564 41.382 41.382 41.382h84.278c22.732 0 41.227 18.494 41.227 41.228v4.656h-23.153c-4.142 0-7.5 3.357-7.5 7.5s3.358 7.5 7.5 7.5h23.153v53.539H20.108v-53.539H438.34c4.142 0 7.5-3.357 7.5-7.5s-3.358-7.5-7.5-7.5H20.108v-87.266C20.108 80.468 85.577 15 166.048 15zm267.803 392.19v-75.446h17.617v41.258a7.5 7.5 0 0 0 7.5 7.5h3.372v26.688h-28.489zm-43.489 0v-26.688h3.372a7.5 7.5 0 0 0 7.5-7.5v-41.258h17.617v75.446h-28.489zm-43.489 0v-26.688h3.372a7.5 7.5 0 0 0 7.5-7.5v-41.258h6.745v41.258a7.5 7.5 0 0 0 7.5 7.5h3.373v26.688h-28.49zm-43.489 0v-26.688h3.372a7.5 7.5 0 0 0 7.5-7.5v-41.258H321v41.258a7.5 7.5 0 0 0 7.5 7.5h3.373v26.688h-28.489zm-43.489 0v-75.446h17.617v41.258a7.5 7.5 0 0 0 7.5 7.5h3.373v26.688h-28.49zm-43.49 0v-26.688h3.372a7.5 7.5 0 0 0 7.5-7.5v-41.258h17.617v75.446h-28.489zm-43.489 0v-26.688h3.372a7.5 7.5 0 0 0 7.5-7.5v-41.258h6.745v41.258a7.5 7.5 0 0 0 7.5 7.5h3.373v26.688h-28.49zm-43.489 0v-75.446h17.617v41.258a7.5 7.5 0 0 0 7.5 7.5h3.373v26.688h-28.49zm-43.489 0v-26.688h3.372a7.5 7.5 0 0 0 7.5-7.5v-41.258h17.617v75.446H85.938zm-43.49 0v-75.446h17.617v41.258a7.5 7.5 0 0 0 7.5 7.5h3.373v26.688h-28.49zm6.937 127.529H37.138v-84.981h12.247v84.981zm461.401 0h-12.247v-84.981h12.247v84.981zm7.5-99.982H20.109V331.744h7.34v82.946a7.5 7.5 0 0 0 7.5 7.5h445.765c4.142 0 7.5-3.357 7.5-7.5s-3.358-7.5-7.5-7.5h-3.373v-26.688h3.373a7.5 7.5 0 0 0 7.5-7.5v-41.258h17.617v75.446h-1.167c-4.142 0-7.5 3.357-7.5 7.5s3.358 7.5 7.5 7.5h8.667a7.5 7.5 0 0 0 7.5-7.5v-82.946h8.781v102.993h-11.326z"/></svg>