<svg xmlns="http://www.w3.org/2000/svg" viewBox="0 0 437.33 437.33"><path d="M434.842 21.855L415.474 2.487c-2.656-2.655-6.818-3.255-10.119-1.457-16.403 8.91-30.764 21.688-41.529 36.951-1.767 2.501-3.682 4.788-5.692 6.798l-66.56 66.561c-9.003 9.002-17.811 16.377-26.938 22.553-1.68 1.146-3.046 2.241-4.061 3.256-2.984 2.984-4.754 6.913-5.168 11.438L75.886 333.906a9.37 9.37 0 0 0-2.628-.377 9.28 9.28 0 0 0-6.604 2.735l-32.048 32.048a9.275 9.275 0 0 0-2.735 6.603c0 1.279.259 2.517.745 3.659l-16.351 16.875a12.48 12.48 0 0 0-4.395-.805c-2.65 0-5.185.823-7.331 2.38l-1.351.98c-1.833 1.329-2.985 3.387-3.164 5.644s.637 4.469 2.238 6.069l25.352 25.351a7.671 7.671 0 0 0 5.459 2.263 7.749 7.749 0 0 0 6.255-3.188l.979-1.35a12.423 12.423 0 0 0 1.583-11.738l16.865-16.341a9.317 9.317 0 0 0 3.661.746c2.495 0 4.84-.972 6.604-2.735l32.048-32.048c2.495-2.495 3.279-6.063 2.354-9.233l185.321-179.522c4.517-.416 8.444-2.188 11.43-5.175 1.04-1.039 2.138-2.403 3.271-4.066 6.169-9.117 13.544-17.925 22.546-26.927l66.56-66.56c2.013-2.013 4.3-3.928 6.796-5.69 15.266-10.768 28.044-25.128 36.952-41.528 1.798-3.305 1.199-7.468-1.456-10.121zm-175.48 134.147l21.964 21.964-4.245 4.112-21.832-21.831 4.113-4.245zM82.34 338.743l167.343-172.748 21.652 21.651L98.586 354.989 82.34 338.743zm-59.637 61.558l15.101-15.585 14.809 14.809-15.585 15.1-14.325-14.324zm11.129 27.792l-.789 1.088-24.894-24.892 1.089-.79c1.745-1.266 4.29-1.061 5.809.459l18.326 18.326a4.467 4.467 0 0 1 .459 5.809zM95.41 365.02l-32.048 32.048c-.341.341-.739.392-.946.392s-.605-.051-.946-.392l-21.206-21.206a1.338 1.338 0 0 1 0-1.893l32.048-32.048c.341-.341.739-.392.946-.392s.605.051.946.392l21.206 21.206a1.34 1.34 0 0 1 0 1.893zm201.416-196.834c-1.052 1.543-1.836 2.43-2.31 2.903-1.805 1.805-4.038 2.535-5.958 2.796l-25.116-25.116c.26-1.926.988-4.163 2.79-5.966.456-.456 1.331-1.225 2.898-2.294 7.394-5.003 14.578-10.76 21.797-17.451L314.27 146.4c-6.691 7.217-12.446 14.4-17.444 21.786zm22.986-27.557L296.7 117.517l67.092-67.081a57.628 57.628 0 0 0 3.7-4.093l23.494 23.494a57.593 57.593 0 0 0-4.093 3.701l-67.081 67.091zM429.269 28.155c-7.791 14.344-18.75 27.018-31.819 36.833l-25.109-25.109c9.814-13.067 22.488-24.027 36.836-31.821a.54.54 0 0 1 .64.085l19.368 19.369a.542.542 0 0 1 .084.643z"/><circle cx="128.62" cy="310.069" r="5.527"/><circle cx="101.397" cy="337.293" r="5.527"/><circle cx="63.269" cy="364.435" r="5.527"/><circle cx="155.844" cy="282.846" r="5.527"/><circle cx="183.068" cy="255.622" r="5.527"/><circle cx="210.291" cy="228.398" r="5.527"/><circle cx="237.515" cy="201.175" r="5.527"/><path d="M337.48 81.938c-5.068 5.068-5.068 13.315 0 18.384a12.914 12.914 0 0 0 9.192 3.808c3.473 0 6.737-1.352 9.193-3.808l24.042-24.041-18.385-18.386-24.042 24.043zm12.728 12.728a4.968 4.968 0 0 1-3.536 1.464 4.967 4.967 0 0 1-3.535-1.464 5.005 5.005 0 0 1 0-7.071l9.9-9.9 7.071 7.071-9.9 9.9zm15.557-15.557l-7.071-7.071 2.828-2.828 7.071 7.071-2.828 2.828z"/></svg>