<svg xmlns="http://www.w3.org/2000/svg" viewBox="0 0 554.871 554.871"><path d="M522.217 257.916L406.72 142.418a7.499 7.499 0 1 0-12.804 5.304c0 14.861-6.344 28.916-17.403 38.559a202.508 202.508 0 0 0-69.461 152.693v106.811c0 5.854-2.282 11.359-6.427 15.504a21.798 21.798 0 0 1-15.519 6.427c-8.186 0-15.55-4.567-19.305-11.539a26.77 26.77 0 0 0 8.595-19.672c0-9.245-4.67-17.611-12.221-22.499l-.545-17.422c7.804-4.81 12.766-13.403 12.766-22.838 0-10-5.639-19.056-14.205-23.653l-.472-15.205c8.87-4.471 14.677-13.582 14.677-23.914a26.74 26.74 0 0 0-16.19-24.624l-.412-13.336c9.811-4.057 16.602-13.752 16.602-24.799 0-11.672-7.572-21.753-18.161-25.38l-.365-11.862c10.824-3.471 18.526-13.55 18.526-25.53 0-12.484-8.57-23.004-20.135-25.988l-2.792-89.943c-.533-17.116-8.573-33.609-22.64-46.441-12.934-11.798-29.648-18.842-44.711-18.842H155.3c-.536 0-1.057.058-1.561.165h-13.03A7.493 7.493 0 0 0 133.889 0H76.023a7.499 7.499 0 0 0-5.368 2.262l-38.401 39.35a7.5 7.5 0 0 0 5.368 12.738h96.268a7.501 7.501 0 0 0 7.35-6.004h10.45a7.46 7.46 0 0 0 3.611.927h27.648c3.903.133 12.461 3.461 17.919 9.211 2.792 2.941 4.169 5.854 4.09 8.654l-10.695 377.231c-.032 1.08-.047 2.16-.047 3.225 0 59.153 48.157 107.277 107.35 107.277s107.351-48.157 107.351-107.351v-21.683c0-51.682 4.606-82.034 15.401-101.489 10.067-18.142 25.357-26.817 48.503-39.949l1.827-1.036c11.174-6.34 21.729-12.328 33.258-12.328h9.324a7.499 7.499 0 0 0 4.987-13.119zm-285.385-47.887c.583.255 1.176.491 1.779.705.113.04.227.077.34.115a26.367 26.367 0 0 0 1.925.582l.33 10.709c-.037.009-.073.022-.11.032-.64.159-1.269.343-1.89.547l-.351.119c-.624.215-1.239.447-1.841.705-.066.028-.13.06-.196.089-.554.243-1.097.505-1.631.783v-15.177c.43.225.867.437 1.311.639l.334.152zm-.55 62.524c.635.296 1.282.57 1.942.816l.08.031c.665.245 1.346.458 2.035.652l.29.083c.667.178 1.344.329 2.03.456.06.011.118.029.179.04l.305 9.872c-.197.033-.39.074-.585.111-.166.031-.333.06-.497.094-.289.061-.575.129-.86.199-.124.031-.25.057-.374.089a28.36 28.36 0 0 0-1.199.341c-.119.037-.236.08-.355.119a30.04 30.04 0 0 0-.831.281c-.158.057-.314.12-.471.18-.232.089-.463.178-.692.273-.166.069-.329.142-.494.215-.216.095-.431.191-.644.292-.165.078-.329.159-.493.24-.154.077-.309.152-.462.232v-15.157c.292.153.586.303.884.446.071.033.142.063.212.095zm-.097 62.714c.203.096.408.188.615.278.181.08.361.158.544.234a32.018 32.018 0 0 0 1.187.458c.216.077.435.149.653.221.186.061.371.124.559.181.226.069.454.131.682.194.185.051.368.104.554.152.239.061.48.113.722.167.179.04.357.084.538.121.268.054.54.099.811.145.157.026.312.058.469.082.424.064.851.119 1.281.164l.291 9.36c-.044.004-.087.011-.131.015-.201.02-.4.046-.6.07-.237.028-.474.056-.708.09-.201.03-.399.065-.598.099-.23.039-.461.078-.689.123-.198.039-.394.083-.591.126-.227.05-.454.101-.679.157-.193.048-.385.1-.577.152a28.558 28.558 0 0 0-1.233.367 29.65 29.65 0 0 0-1.21.425 25.631 25.631 0 0 0-2.886 1.296v-15.171c.153.08.309.157.464.234.175.089.353.176.532.26zm14.61 27.087c5.065 1.439 8.602 6.124 8.602 11.391 0 5.02-3.173 9.506-7.926 11.173a11.66 11.66 0 0 1-3.908.661c-6.525 0-11.834-5.309-11.834-11.834s5.309-11.834 11.834-11.834c1.118 0 2.199.148 3.232.443zm-15.607 50.352v-15.16a24.887 24.887 0 0 0 1.067.526 26.592 26.592 0 0 0 1.821.771 28.024 28.024 0 0 0 1.814.614 25.912 25.912 0 0 0 2.556.628 27.168 27.168 0 0 0 3.997.467c.101.004.201.014.303.017l.285 9.107c-.15.003-.297.015-.447.02-.216.008-.431.016-.645.029-.239.014-.476.034-.714.054-.213.019-.425.037-.637.061a31.515 31.515 0 0 0-1.329.18c-.232.038-.463.081-.693.124-.206.039-.412.078-.616.121-.229.049-.455.103-.681.158-.202.049-.404.097-.604.15-.225.06-.448.125-.671.191-.197.058-.394.115-.589.177-.221.071-.439.147-.658.223-.194.068-.388.134-.579.206-.215.08-.427.166-.639.252-.19.077-.38.153-.568.234-.211.091-.418.187-.626.283-.184.085-.369.169-.552.259-.198.099-.397.204-.595.308zm12.375 11.964a11.8 11.8 0 0 1 11.834 11.834c0 4.367-2.387 8.358-6.249 10.43a11.627 11.627 0 0 1-5.585 1.404c-6.525 0-11.834-5.309-11.834-11.834s5.308-11.834 11.834-11.834zm2.769-102.202l-.113.027c-.815.206-1.708.311-2.657.311-6.525 0-11.834-5.309-11.834-11.833 0-.431.026-.856.071-1.275.014-.128.04-.251.058-.378.041-.29.084-.58.146-.863.031-.142.073-.281.109-.421.067-.261.137-.521.221-.775.047-.143.103-.283.155-.424.091-.243.186-.483.292-.718.064-.141.132-.28.202-.418a11.889 11.889 0 0 1 .605-1.071c.128-.201.263-.396.403-.589.101-.139.201-.277.307-.411.136-.172.281-.337.427-.502.125-.141.248-.283.38-.417.132-.135.273-.262.411-.391.16-.148.316-.3.484-.439.096-.08.198-.151.296-.228a11.798 11.798 0 0 1 3.67-1.951c.033-.01.066-.024.099-.034.3-.093.607-.167.917-.236.094-.021.187-.045.282-.064.27-.053.545-.091.821-.125.151-.019.302-.038.455-.051.229-.02.462-.029.695-.035.244-.006.489-.008.736.002.126.005.252.008.379.017.385.027.772.07 1.163.136.032.005.063.007.095.013 5.672.972 9.789 5.871 9.789 11.649.001 5.505-3.727 10.232-9.064 11.494zm-1.253-62.523a11.04 11.04 0 0 1-1.517.103c-6.525 0-11.834-5.309-11.834-11.834s5.309-11.834 11.834-11.834c.359 0 .544.015.607.021.08.008.159.015.239.02 6.161.42 10.987 5.601 10.987 11.793.002 5.917-4.407 10.956-10.316 11.731zm10.318-74.504c0 6.432-5.03 11.624-11.452 11.822-.102.003-.105.003-.207.01l-.175.001c-6.525 0-11.834-5.309-11.834-11.833 0-6.44 5.032-11.634 11.457-11.823l.222-.01.155-.001c6.525 0 11.834 5.309 11.834 11.834zM126.389 39.35h-7.255V15h7.255v24.35zm-22.255 0h-7.812V15h7.812v24.35zM79.183 15h2.14v24.35H55.421L79.183 15zm62.206 4.393h6.411v13.953h-6.411V19.393zm325.857 250.923l-1.827 1.037c-23.523 13.346-42.104 23.888-54.217 45.717-12.115 21.835-17.285 54.364-17.285 108.768v21.683c0 50.922-41.429 92.351-92.351 92.351s-92.35-41.396-92.35-92.277c0-.92.014-1.854.041-2.793l10.695-377.24c.191-6.839-2.646-13.549-8.206-19.405-8.417-8.866-20.715-13.694-28.513-13.881l-.18-.002h-20.25V19.228h21.314c23 0 51.483 22.638 52.358 50.749l2.791 89.919c-.043.014-.083.032-.126.046-.596.194-1.183.407-1.759.64l-.283.119c-.574.24-1.141.495-1.693.773l-.059.028-.16.083v-5.094c0-4.143-3.358-7.5-7.5-7.5s-7.5 3.357-7.5 7.5V474.98c0 4.143 3.358 7.5 7.5 7.5s7.5-3.357 7.5-7.5v-14.678a26.659 26.659 0 0 0 12.375 3.036 26.675 26.675 0 0 0 2.713-.15 27.417 27.417 0 0 0 1.92-.262c.059-.01.12-.014.179-.024 6.263 11.963 18.803 19.813 32.732 19.813 9.87 0 19.148-3.843 26.126-10.82 6.977-6.979 10.819-16.251 10.819-26.11V338.974a187.514 187.514 0 0 1 64.317-141.387c10.226-8.915 17.339-20.722 20.574-33.731l92.842 92.843c-11.961 1.944-22.391 7.861-32.537 13.617zm-55.688-76.463a7.5 7.5 0 0 1-.727 10.582c-30.153 26.275-51.463 62.271-60.004 101.354a7.503 7.503 0 0 1-7.32 5.9 7.502 7.502 0 0 1-7.334-9.104c9.224-42.209 32.238-81.082 64.803-109.46a7.501 7.501 0 0 1 10.582.728zm-80.051 151.978c0-5.358.216-10.781.642-16.119.33-4.129 3.938-7.193 8.073-6.88a7.501 7.501 0 0 1 6.88 8.073 188.147 188.147 0 0 0-.595 14.926c0 4.143-3.357 7.5-7.5 7.5s-7.5-3.357-7.5-7.5zm26.472 7.999c-15.513 0-28.134 12.621-28.134 28.134s12.621 28.133 28.134 28.133 28.133-12.62 28.133-28.133-12.62-28.134-28.133-28.134zm0 41.267c-7.242 0-13.134-5.892-13.134-13.133 0-7.242 5.892-13.134 13.134-13.134 7.241 0 13.133 5.892 13.133 13.134 0 7.241-5.892 13.133-13.133 13.133zm0 19.116c-15.513 0-28.134 12.621-28.134 28.134s12.621 28.133 28.134 28.133 28.133-12.62 28.133-28.133-12.62-28.134-28.133-28.134zm0 41.266c-7.242 0-13.134-5.892-13.134-13.133 0-7.242 5.892-13.134 13.134-13.134 7.241 0 13.133 5.892 13.133 13.134s-5.892 13.133-13.133 13.133z"/></svg>