<svg xmlns="http://www.w3.org/2000/svg" viewBox="0 0 543.713 543.713"><path d="M510.326 324.552H323.671v-1.729a7.5 7.5 0 0 0-7.5-7.5h-28.159a7.452 7.452 0 0 0-3.937-1.125h-36.317v-73.661c46.896 1.797 80.082 5.038 98.712 9.646 6.576 1.627 16.473 8.563 26.471 18.552 5.17 5.174 9.125 12.695 12.95 19.968 6.115 11.63 12.438 23.655 24.512 23.655 14.049 0 26.831-10.09 35.991-28.411 8.334-16.669 12.923-38.663 12.923-61.929 0-23.27-4.589-45.265-12.923-61.932-9.159-18.318-21.941-28.407-35.991-28.407-12.125 0-18.456 11.984-24.579 23.575-3.842 7.272-7.815 14.793-13.058 20.036-9.99 9.989-19.833 16.932-26.328 18.57-21.102 5.317-62.887 8.813-124.193 10.388h-.435c-9.481 0-92.277.29-149.53.516-39.856.155-72.28 32.71-72.28 72.57 0 40.017 32.556 72.572 72.572 72.572h211.502c.155 0 .306-.014.458-.023v17.235a7.501 7.501 0 0 0-6.927 7.479v1.729h-20.043v-2.854a7.502 7.502 0 0 0-5.816-7.309l-21.408-4.931c-.837-3.229-3.762-5.616-7.252-5.616h-18.904a7.5 7.5 0 0 0-7.5 7.5v41.42a7.5 7.5 0 0 0 7.5 7.5h18.904c3.49 0 6.415-2.387 7.252-5.615l21.407-4.93a7.5 7.5 0 0 0 5.817-7.309v-2.855h20.043v1.729a7.5 7.5 0 0 0 7.5 7.5h31.065a7.5 7.5 0 0 0 7.5-7.5v-1.729h186.655c18.41 0 33.387-14.978 33.387-33.387.001-18.411-14.976-33.388-33.386-33.388zm-298.643 46.064h3.904v26.42h-3.904v-26.42zm30.88 17.597l-11.976 2.758v-14.289l11.976 2.759v8.772zM15 277.334c0-31.621 25.722-57.447 57.338-57.571 57.241-.226 140.005-.516 149.471-.516h.511c.066-.006.139-.001.209-.003 62.467-1.602 105.389-5.249 127.576-10.84 12.517-3.158 26.215-15.458 33.266-22.509 6.843-6.843 11.556-15.765 15.715-23.637 3.474-6.575 8.231-15.581 11.316-15.581 16.041 0 33.914 30.94 33.914 75.339s-17.873 75.34-33.914 75.34c-3.013 0-7.766-9.037-11.236-15.637-4.143-7.878-8.837-16.807-15.62-23.594-8.633-8.625-21.448-19.53-33.475-22.505-20.653-5.108-57.514-8.592-109.56-10.356a7.522 7.522 0 0 0-5.467 2.104 7.503 7.503 0 0 0-2.287 5.393v88.937a7.5 7.5 0 0 0 7.5 7.5h36.317v5.709H72.572C40.827 334.906 15 309.079 15 277.334zm293.671 108.221h-16.065v-3.48a7.501 7.501 0 0 0 6.927-7.479V341.28a7.5 7.5 0 0 0-7.5-7.5h-.458v-3.458h17.096v3.479a7.5 7.5 0 0 0-6.927 7.479v33.316a7.501 7.501 0 0 0 6.927 7.479v3.48zm8.073-18.437v-18.359a7.5 7.5 0 0 0 6.927-7.479v-1.729h16.065v36.774h-16.065v-1.729a7.5 7.5 0 0 0-6.927-7.478zm193.582 9.208h-155.59v-36.774h155.59c10.139 0 18.387 8.249 18.387 18.388s-8.248 18.386-18.387 18.386zM74.556 224.401l-1.456-.003c-28.888 0-52.39 23.506-52.39 52.398 0 28.894 23.506 52.4 52.399 52.4h1.429a7.5 7.5 0 0 0 7.5-7.5V231.9a7.499 7.499 0 0 0-7.482-7.499zm-7.517 89.304c-17.745-2.909-31.329-18.353-31.329-36.908 0-18.558 13.585-34.002 31.329-36.907v73.815zm44.664-89.188l-19.446-.076h-.03a7.499 7.499 0 0 0-7.5 7.5v89.756a7.5 7.5 0 0 0 7.5 7.5h19.448a7.5 7.5 0 0 0 7.5-7.5v-89.68a7.502 7.502 0 0 0-7.472-7.5zm-7.529 89.68h-4.448V239.47l4.448.018v74.709zm119.119-89.353l-3.947-.106c-.078-.001-.159-.005-.234-.002-.561.004-1.698.005-3.337.005-11.613 0-49.561-.081-86.392-.185h-.021a7.501 7.501 0 0 0-7.5 7.5v89.642a7.5 7.5 0 0 0 7.5 7.5h93.725a7.5 7.5 0 0 0 7.5-7.5v-89.356a7.5 7.5 0 0 0-7.294-7.498zm-7.707 89.353h-78.725v-74.621c34.166.093 67.693.163 78.725.164v74.457zm134.471-93.635a7.5 7.5 0 0 1 5.438-9.107c2.881-.727 6.147-2.018 9.445-3.734a7.499 7.499 0 1 1 6.926 13.304c-4.377 2.279-8.651 3.952-12.702 4.975a7.502 7.502 0 0 1-9.107-5.438zm31.766-14.745a7.5 7.5 0 0 1 0-10.606c10.915-10.916 17.007-23.126 21.902-32.938 1.178-2.36 2.29-4.59 3.411-6.697a7.497 7.497 0 0 1 10.144-3.099 7.5 7.5 0 0 1 3.098 10.144c-1.029 1.935-2.099 4.078-3.231 6.349-5.38 10.784-12.077 24.206-24.718 36.847-1.464 1.465-3.384 2.197-5.303 2.197s-3.838-.733-5.303-2.197z"/></svg>