<svg xmlns="http://www.w3.org/2000/svg" viewBox="0 0 552.397 552.397"><path d="M500.489 161.813c-12.675 0-19.386 12.704-25.876 24.99-4.139 7.834-8.419 15.936-14.099 21.615-10.777 10.777-21.425 18.275-28.481 20.057-23.412 5.899-60.649 9.411-116.911 11.009a7.475 7.475 0 0 0-5.288-2.183h-3.59v-4.972h3.602c4.142 0 7.5-3.357 7.5-7.5s-3.358-7.5-7.5-7.5H287.64c-4.142 0-7.5 3.357-7.5 7.5s3.358 7.5 7.5 7.5h3.603v4.972h-3.614a7.477 7.477 0 0 0-5.902 2.883 4698.3 4698.3 0 0 1-10.518.085l-4.176.032a7.48 7.48 0 0 0-5.99-3h-3.602v-4.972h3.601c4.142 0 7.5-3.357 7.5-7.5s-3.358-7.5-7.5-7.5h-22.204c-4.142 0-7.5 3.357-7.5 7.5s3.358 7.5 7.5 7.5h3.603v4.972h-3.603a7.49 7.49 0 0 0-6.205 3.288c-4.398.015-9.862.027-14.162.035a7.49 7.49 0 0 0-6.229-3.323h-3.602v-4.972h3.602c4.142 0 7.5-3.357 7.5-7.5s-3.358-7.5-7.5-7.5h-22.205c-4.142 0-7.5 3.357-7.5 7.5s3.358 7.5 7.5 7.5h3.603v4.972h-3.603a7.492 7.492 0 0 0-6.214 3.299 672.933 672.933 0 0 1-5.369-.058c-1.842-.025-3.949-.055-7.593-.085-.203-.002-.401-.002-.604-.002-27.946 0-52.508 17.554-61.738 43.492H90.012a7.482 7.482 0 0 0-5.799 2.745H62.482a7.483 7.483 0 0 0-4.102-2.55l-23.276-5.362a7.5 7.5 0 0 0-7.333-5.933H7.5a7.5 7.5 0 0 0-7.5 7.5v44.414a7.5 7.5 0 0 0 7.5 7.5h20.271a7.5 7.5 0 0 0 7.333-5.933l23.276-5.362a7.476 7.476 0 0 0 4.102-2.55h21.73a7.485 7.485 0 0 0 5.8 2.746h16.3c6.832 32.077 35.417 55.511 69.07 55.511h7.155v6.411a7.5 7.5 0 0 0 7.5 7.5h22.205a7.5 7.5 0 0 0 7.5-7.5v-6.411h11.597v6.411a7.5 7.5 0 0 0 7.5 7.5h22.205a7.5 7.5 0 0 0 7.5-7.5v-6.411h11.585v6.411a7.5 7.5 0 0 0 7.5 7.5h22.204a7.5 7.5 0 0 0 7.5-7.5v-6.411h44.715c25.562 0 46.357-20.796 46.357-46.357 0-12.374-4.821-24.019-13.579-32.791-8.756-8.756-20.397-13.578-32.779-13.578h-44.715v-7.143c54.188 1.571 90.777 5.089 114.731 11.012 7.142 1.767 17.85 9.258 28.638 20.035 5.602 5.606 9.862 13.708 13.982 21.542 6.482 12.328 13.186 25.076 25.804 25.076 29.107 0 51.909-42.313 51.909-96.328.001-54.016-22.8-96.328-51.907-96.328zm-183.156 159.35h44.715c5.047 0 9.153 4.106 9.153 9.153a9.1 9.1 0 0 1-2.692 6.479 9.053 9.053 0 0 1-6.461 2.674h-44.715v-18.306zm-48.79-22.216h11.585v7.216h-11.585v-7.216zm11.586-15h-11.585v-7.964l2.246.015c3.102.02 6.404.041 9.339.063v7.886zm-11.586 37.216h11.585v18.307h-11.585v-18.307zm2.778-65.894c2.917-.022 6.013-.045 8.808-.07v5.862c-2.921-.022-6.178-.043-9.244-.063l-2.341-.015v-5.694l2.777-.02zm-39.982 28.678h-11.597v-8.219c3.673.003 7.91.007 11.597.013v8.206zm-11.597 15h11.597v7.216h-11.597v-7.216zm11.597-38.206c-3.69-.006-7.926-.01-11.597-.013v-5.107c3.707-.007 7.923-.016 11.597-.028v5.148zm-11.597 60.422h11.597v18.307h-11.597v-18.307zm-37.204-37.216h-31.732a28.498 28.498 0 0 1 19.317-7.854c3.617-.049 5.723-.096 7.658-.139 1.479-.033 2.858-.064 4.756-.092v8.085zm0 55.523h-8.825c-12.621 0-22.786-6.82-28.065-18.307h36.89v18.307zm-12.273-84.015c.154 0 .311 0 .466.002 3.611.03 5.696.059 7.519.083 1.386.019 2.636.036 4.288.051v5.27c-2.056.029-3.521.062-5.092.097-1.901.043-3.972.089-7.525.138-16 .215-30.313 9.027-37.761 22.853h-7.4a50.466 50.466 0 0 1 45.505-28.494zM15 287.848h5.271v29.414H15v-29.414zm20.271 6.364l13.926 3.208v10.27l-13.926 3.208v-16.686zm28.926 9.205v-1.725h18.311v1.725m15.004-4.47h16.423c.039 0 .077.006.116.006.046 0 .09-.005.135-.006h22.697l.042.002.026-.002h45.586v7.216H97.512v-7.216zm77.87 62.727c-25.399 0-47.121-16.915-53.626-40.511h7.847c6.49 20.427 23.25 33.307 44.108 33.307h8.825v7.204h-7.154zm29.36 13.911h-7.205V252.301h7.205v123.284zm15-13.911v-7.204h11.597v7.204h-11.597zm33.801 13.911h-7.205V252.301h7.205v123.284zm15-13.911v-7.204h11.585v7.204h-11.585zm33.79 13.911h-7.204V252.301h7.204v123.284zm59.715-76.638c8.375 0 16.249 3.262 22.168 9.181 5.926 5.936 9.189 13.815 9.189 22.188 0 17.291-14.067 31.357-31.357 31.357h-44.715v-7.204h44.715c6.465 0 12.533-2.517 17.078-7.077 4.563-4.563 7.076-10.628 7.076-17.076 0-13.318-10.835-24.153-24.153-24.153h-44.715v-7.216h44.714zm163.132 18.65c-6.95 13.9-15.949 21.873-24.691 21.873-3.559 0-8.532-9.458-12.528-17.057-4.424-8.414-9.438-17.949-16.653-25.17-7.54-7.531-22.196-20.662-35.643-23.987-25.069-6.2-62.798-9.858-118.332-11.458v-7.375c56.396-1.657 94.132-5.297 118.367-11.405 13.298-3.356 27.9-16.474 35.42-23.993 7.28-7.28 12.313-16.809 16.755-25.216 4-7.573 8.979-16.997 12.613-16.997 8.743 0 17.742 7.971 24.691 21.869 7.878 15.757 12.217 36.874 12.217 59.46.001 22.583-4.337 43.697-12.216 59.456zm-63.884-74.391a7.499 7.499 0 0 1-3.189 10.115c-4.659 2.426-9.202 4.205-13.503 5.29a7.503 7.503 0 0 1-9.106-5.439 7.499 7.499 0 0 1 5.438-9.106c3.127-.788 6.669-2.188 10.244-4.05a7.5 7.5 0 0 1 10.116 3.19zm48.604-52.284c-1.107 2.081-2.257 4.385-3.474 6.823-5.752 11.528-12.911 25.875-26.401 39.366-1.464 1.464-3.384 2.196-5.303 2.196s-3.839-.732-5.303-2.196a7.5 7.5 0 0 1 0-10.607c11.765-11.765 18.319-24.9 23.585-35.456 1.262-2.529 2.454-4.918 3.654-7.173a7.498 7.498 0 0 1 10.144-3.098 7.5 7.5 0 0 1 3.098 10.145z"/></svg>