<svg xmlns="http://www.w3.org/2000/svg" viewBox="0 0 442.257 442.257" width="512" height="512"><g fill="#292f36"><path d="M439.826 8.864l-6.429-6.429A8.262 8.262 0 0 0 427.517 0a8.287 8.287 0 0 0-4.614 1.399l-7.862 5.248-1.908-1.908a4 4 0 1 0-5.656 5.657l.779.779-6.017 4.017a8.282 8.282 0 0 0-3.658 6.099 8.302 8.302 0 0 0 .445 3.623l-3.28 3.067-3.418-3.418c.897-1.446 1.549-2.974 1.885-4.502.725-3.299-.038-6.37-2.093-8.424-1.522-1.522-3.658-2.361-6.014-2.361-3.439 0-7.107 1.696-10.065 4.652-5.148 5.15-6.154 12.212-2.289 16.079 1.523 1.523 3.659 2.361 6.015 2.361 2.294 0 4.687-.769 6.906-2.149l3.227 3.227-16 14.958-2.707-2.707c.897-1.445 1.548-2.973 1.884-4.5.725-3.299-.038-6.37-2.092-8.423-1.523-1.523-3.659-2.362-6.015-2.362-3.439 0-7.108 1.695-10.064 4.651-5.15 5.15-6.156 12.213-2.291 16.079 1.523 1.523 3.659 2.362 6.015 2.362 2.295 0 4.688-.77 6.908-2.15l2.516 2.516-91.261 85.322c-14.457-10.064-30.92-16.121-46.772-17.135-18.038-1.152-34.149 4.391-45.369 15.61a146.097 146.097 0 0 0-4.14 4.315l-69.103-69.103a.022.022 0 0 0-.005-.004L97.478 58.953a21.68 21.68 0 0 0-15.431-6.392 21.653 21.653 0 0 0-12.336 3.829l-2.081-2.081a4 4 0 0 0-5.657 5.657l103.371 103.371c-.19.377-.382.754-.565 1.133-2.069 3.455-6.781 9.623-15.547 13.204-3.137 1.291-5.157 4.302-5.147 7.672.01 3.283 1.894 6.083 4.9 7.299.093.039 1.152.529 1.152.529 1.222.48 2.114 1.156 2.718 2.053 1.772 2.652.855 7.577-2.454 13.174-3.948 6.677-10.668 13.506-18.924 19.232-11.643 8.083-24.708 12.525-32.519 11.042-2.25-.426-3.838-1.31-4.715-2.62-.068-.106-.735-1.197-3.031-6.795-1.125-2.727-3.668-4.426-6.637-4.435h-.021a7.51 7.51 0 0 0-6.932 4.632 32.29 32.29 0 0 1-6.969 10.386c-3.345 3.345-7.419 5.914-11.777 7.426-16.87 5.829-30.855 13.979-40.445 23.568C2.544 286.725-3.35 309.361 1.836 334.576c4.797 23.326 18.492 47.225 38.562 67.295 20.066 20.065 43.962 33.757 67.286 38.553 5.97 1.227 11.793 1.833 17.418 1.833 18.134 0 34.193-6.305 46.318-18.43 9.581-9.581 17.733-23.561 23.578-40.433 2.901-8.388 9.39-15.225 17.787-18.751a7.572 7.572 0 0 0 2.465-1.64 7.45 7.45 0 0 0 2.045-6.738c-.475-2.383-2.041-4.285-4.306-5.222-5.488-2.251-6.61-2.913-6.781-3.024-1.311-.876-2.191-2.458-2.618-4.701-1.482-7.804 2.953-20.88 11.035-32.538 5.725-8.255 12.554-14.975 19.231-18.92 5.598-3.308 10.525-4.223 13.177-2.45.898.603 1.574 1.498 2.065 2.735l.507 1.112c1.224 3.023 4.023 4.907 7.307 4.917h.024c3.359 0 6.36-2.019 7.649-5.152 3.608-8.801 9.767-13.485 13.208-15.531.38-.184.758-.377 1.136-.568l131.276 131.276c.78.781 1.805 1.171 2.828 1.171s2.048-.391 2.828-1.171a3.999 3.999 0 0 0 0-5.657L396.8 383.481l12.604-12.602-109.131-109.132a143.597 143.597 0 0 0 4.314-4.14c11.215-11.214 16.755-27.323 15.602-45.357-1.013-15.854-7.07-32.316-17.132-46.77l75.119-80.348 3.829 3.829c-.896 1.445-1.547 2.972-1.883 4.498-.725 3.299.038 6.37 2.092 8.423 1.523 1.523 3.659 2.362 6.015 2.362 3.439 0 7.108-1.695 10.065-4.652 5.148-5.15 6.154-12.212 2.29-16.078-1.523-1.523-3.659-2.362-6.015-2.362-2.296 0-4.689.77-6.909 2.151l-4.019-4.019L398.6 63.283l4.535 4.535c-2.847 4.6-2.906 9.805.214 12.927 1.523 1.523 3.659 2.362 6.015 2.362 3.44 0 7.109-1.695 10.064-4.651 2.231-2.231 3.788-4.95 4.383-7.656.725-3.299-.038-6.37-2.092-8.423-1.523-1.523-3.659-2.362-6.015-2.362-2.295 0-4.689.77-6.909 2.151l-4.73-4.729 13.283-14.208a8.302 8.302 0 0 0 9.718-3.206l4.017-6.018.786.786c.78.781 1.805 1.172 2.828 1.172s2.047-.391 2.828-1.171a3.999 3.999 0 0 0 0-5.657l-1.914-1.914 5.248-7.862a8.331 8.331 0 0 0-1.033-10.495zm-60.407 15.47c-.181-.581.212-2.681 2.278-4.748 1.596-1.595 3.363-2.309 4.408-2.309.166 0 .28.019.346.036.181.58-.211 2.681-2.279 4.749-1.594 1.595-3.361 2.308-4.406 2.308-.166 0-.282-.019-.347-.036zm-21.137 21.137c-.181-.58.211-2.68 2.278-4.748 1.596-1.595 3.363-2.309 4.408-2.309.166 0 .28.019.346.036.182.58-.211 2.68-2.278 4.748-1.596 1.595-3.363 2.309-4.408 2.309a1.473 1.473 0 0 1-.346-.036zm36.634 43.717c.181.581-.212 2.681-2.278 4.748-1.596 1.595-3.363 2.309-4.408 2.309a1.42 1.42 0 0 1-.346-.036c-.182-.58.21-2.68 2.278-4.748 1.596-1.595 3.363-2.309 4.408-2.309.166.001.281.019.346.036zm21.137-21.136c.181.58-.211 2.68-2.279 4.748-1.594 1.595-3.362 2.308-4.407 2.308a1.42 1.42 0 0 1-.346-.036c-.181-.581.212-2.681 2.278-4.748 1.596-1.595 3.363-2.309 4.408-2.309.166.001.281.02.346.037zm-11.948-36.936l7.039 7.039-2.525 2.7-7.215-7.215 2.701-2.524zM190.307 143.327c9.708-9.709 23.269-14.303 39.201-13.283 13.9.889 28.378 6.094 41.292 14.752l-45.211 42.268-39.418-39.417a136.039 136.039 0 0 1 4.136-4.32zm52.712 86.371l6.712-7.179 38.773 38.773c-2.73 2.149-5.442 4.046-8.179 5.712l-37.306-37.306zm-5.66-5.659l-19.137-19.137 7.179-6.712 18.669 18.669-6.711 7.18zm-5.467 5.847l-20.063 21.46-20.914-20.914 21.46-20.063 19.517 19.517zm-19.329-30.644l-37.305-37.305c1.664-2.737 3.559-5.45 5.709-8.182l38.775 38.775-7.179 6.712zM75.515 62.195a13.75 13.75 0 0 1 6.531-1.634 13.73 13.73 0 0 1 9.774 4.049l2 2a21.736 21.736 0 0 0-10.175 3.716l-8.13-8.131zm13.936 13.936c5.227-2.795 11.883-1.999 16.29 2.399l69.53 69.53a93.317 93.317 0 0 0-5.82 8.071l-80-80zM43.163 393.23l32.404-32.404 5.868 5.869-32.404 32.404a161.245 161.245 0 0 1-2.977-2.885c-.983-.984-1.94-1.983-2.891-2.984zm44.444-31.679l-6.896-6.897 25.373-38.212 19.735 19.735-38.212 25.374zm169.579-71.569c-.057.138-.272.015-.272.015-.177-.423-.33-.791-.512-1.127-1.094-2.597-2.744-4.648-4.914-6.105-10.581-7.078-29.255 3.006-43.436 23.457-9.514 13.722-14.235 28.509-12.32 38.589.83 4.367 2.915 7.776 6.025 9.855.716.48 2.092 1.235 6.681 3.151-9.891 4.553-17.504 12.854-20.999 22.96-5.372 15.508-13.07 28.788-21.675 37.393-17.843 17.844-40.556 17.688-56.468 14.417-18.478-3.799-37.414-13.67-54.308-28.13l34.652-34.652 48.75-32.371-33.561-33.562-32.372 48.75-34.651 34.651c-14.46-16.897-24.333-35.833-28.133-54.31-3.272-15.912-3.428-38.625 14.416-56.469 8.612-8.613 21.895-16.306 37.406-21.666 5.499-1.908 10.622-5.134 14.816-9.329a40.207 40.207 0 0 0 8.131-11.68c2.194 5.249 2.852 6.233 3.147 6.676 2.088 3.123 5.504 5.211 9.88 6.04 10.083 1.91 24.863-2.815 38.568-12.329 20.448-14.18 30.537-32.849 23.46-43.436-1.466-2.177-3.521-3.827-6.111-4.91-.36-.193-.777-.37-1.302-.59.01-.061.051-.14.183-.194 10.364-4.234 16.199-11.426 18.974-15.842l35.475 35.475-27.307 25.529 32.614 32.614 25.53-27.307 35.48 35.48c-4.411 2.757-11.588 8.567-15.847 18.957zm140.905 80.897l-6.946 6.946-14.905-14.905 6.946-6.946 14.905 14.905zm-20.562-20.562l-6.946 6.946-84.453-84.453a93.45 93.45 0 0 0 8.068-5.823l83.331 83.33zm-65.323-137.556c1.019 15.935-3.571 29.486-13.274 39.189a137.11 137.11 0 0 1-4.319 4.136l-39.415-39.414 42.259-45.2c8.656 12.912 13.86 27.388 14.749 41.289zm-62.668-1.749l-18.289-18.289L362.788 69.744l9.728 9.728-122.978 131.54zM368.635 64.278l5.076-4.746 9.017 9.017-4.746 5.076-9.347-9.347zm19.56-1.576l-8.636-8.636 5.078-4.747 8.306 8.306-4.748 5.077zm2.288-18.85l5.075-4.745 7.595 7.595-4.744 5.075-7.926-7.925zm29.932-8.27c-.122.183-.398.133-.484.048l-13.299-13.3c-.028-.029-.105-.105-.091-.253s.105-.208.139-.23l20.664-13.793a.313.313 0 0 1 .398.038l6.428 6.428a.318.318 0 0 1 .039.398l-13.794 20.664z"/><path d="M149.606 244.733a4.163 4.163 0 0 1 2.949 7.104l-1.726 1.726a4.001 4.001 0 0 0-.001 5.657l1.621 1.621a4 4 0 0 0 6.572-4.24c3.914-4.772 3.644-11.849-.81-16.302-2.299-2.299-5.355-3.565-8.606-3.565s-6.308 1.266-8.606 3.565l-31.393 31.393a4.174 4.174 0 0 1-5.898 0 4.163 4.163 0 0 1 0-5.882l1.726-1.726a4 4 0 0 0-.001-5.658l-1.621-1.62a4 4 0 0 0-6.572 4.24c-3.914 4.772-3.644 11.849.81 16.303a12.133 12.133 0 0 0 8.606 3.559c3.116 0 6.233-1.187 8.606-3.559l31.393-31.394a4.151 4.151 0 0 1 2.951-1.222zm36.055 38.506a4 4 0 0 0-4.24 6.572l1.621 1.621a4 4 0 0 0 5.657 0l1.726-1.726a4.164 4.164 0 0 1 5.882 0 4.175 4.175 0 0 1 0 5.898l-31.393 31.393c-4.745 4.746-4.745 12.467 0 17.212a12.08 12.08 0 0 0 8.599 3.562c2.843 0 5.537-.969 7.705-2.751a4 4 0 0 0 4.239-6.573l-1.621-1.621a4.001 4.001 0 0 0-5.657 0l-1.726 1.726a4.13 4.13 0 0 1-2.941 1.218 4.13 4.13 0 0 1-2.941-1.219 4.175 4.175 0 0 1 0-5.898l31.393-31.393c4.745-4.746 4.745-12.467 0-17.213-4.454-4.452-11.533-4.722-16.303-.808z"/><path d="M167.587 308.373a4 4 0 0 0 2.829-6.828l-29.698-29.698a4 4 0 0 0-5.657 5.657l29.698 29.698a3.99 3.99 0 0 0 2.828 1.171z"/></g></svg>