<svg xmlns="http://www.w3.org/2000/svg" viewBox="0 0 511.999 511.999"><path d="M240.159 327.651a16.02 16.02 0 0 0 2.063-12.17 16.018 16.018 0 0 0-7.147-10.063 7.603 7.603 0 0 0-8.084 12.878c.215.135.353.327.409.574s.017.48-.119.695l-24.619 39.227c-4.729 7.531-2.448 17.505 5.083 22.233a7.595 7.595 0 0 0 10.48-2.396 7.602 7.602 0 0 0-2.395-10.481.885.885 0 0 1-.409-.576.885.885 0 0 1 .119-.695l24.619-39.226zM206.401 276.745a16.022 16.022 0 0 0-10.063-7.147 16.004 16.004 0 0 0-12.169 2.061l-39.228 24.623a.898.898 0 0 1-.695.118.891.891 0 0 1-.574-.409 7.603 7.603 0 0 0-12.878 8.084 16.018 16.018 0 0 0 10.064 7.147 16.027 16.027 0 0 0 12.169-2.061l39.227-24.622a.887.887 0 0 1 .694-.118.89.89 0 0 1 .575.409 7.603 7.603 0 1 0 12.878-8.085z"/><path d="M504.38 68.03c-5.11-4.609-11.772-6.705-18.518-5.869a23.21 23.21 0 0 0-9.114 3.139l-2.211-2.211 6.6-7.079c.722.129 1.456.204 2.199.204 1.184 0 2.377-.162 3.601-.533 2.915-.883 5.381-2.859 7.073-5.394l15.535-23.273c3.308-4.956 2.65-11.609-1.562-15.822h-.001l-7.348-7.347c-4.213-4.216-10.867-4.875-15.823-1.564l-23.623 15.768a12.489 12.489 0 0 0-5.514 9.194 12.547 12.547 0 0 0 .15 3.435l-7.089 6.608-3.145-3.145c3.546-9.311.817-20.247-7.437-26.689-10.133-7.911-24.813-6.101-32.723 4.034-7.91 10.134-6.1 24.813 4.033 32.722 4.14 3.232 9.13 4.94 14.298 4.94.961 0 1.93-.06 2.899-.179a23.21 23.21 0 0 0 9.114-3.139l1.831 1.831-27.821 25.934-1.825-1.825c4.125-10.83-.237-23.854-11.908-29.454a22.05 22.05 0 0 0-7.887-2.108c-8.961-.667-17.135 3.503-21.804 10.965a22.986 22.986 0 0 0-3.501 12.002c-.049 7.436 3.249 14.194 8.975 18.663a23.194 23.194 0 0 0 14.32 4.926c4.184 0 8.341-1.127 11.991-3.306l.511.511-79.735 74.332c-16.422-10.894-34.896-17.446-52.739-18.586-12.007-.77-23.308.971-33.293 4.995L159.47 71.291c-12.052-12.05-31.241-12.707-44.08-1.989l-1.041-1.041c-2.944-2.944-7.779-3.242-10.809-.386a7.604 7.604 0 0 0-.167 10.915l95.095 95.095c-3.894 5.226-7.093 10.462-9.727 15.892-2.203 3.64-7.138 10.011-16.26 13.738-4.731 1.946-7.778 6.492-7.762 11.582.015 4.933 2.965 9.311 7.435 11.118l.459.193c.303.17.617.319.943.447 1.078.424 1.495.908 1.7 1.212 2.653 3.968-4.309 19.462-23.648 32.874-14.65 10.171-28.073 13.421-34.883 12.136-1.177-.223-2.712-.69-3.399-1.65-.148-.265-.973-1.814-3.219-7.29-1.735-4.206-5.808-6.932-10.378-6.946-4.678-.044-8.925 2.796-10.751 7.151a33.921 33.921 0 0 1-7.318 10.904c-3.502 3.503-7.763 6.19-12.312 7.769a168.034 168.034 0 0 0-7.175 2.663c-4.061 1.614-5.966 6.275-4.148 10.247l.002.005a7.595 7.595 0 0 0 9.724 3.891 153.739 153.739 0 0 1 6.573-2.439c6.714-2.33 12.969-6.267 18.088-11.384a49.073 49.073 0 0 0 6.88-8.628c.748 1.543 1.117 2.094 1.353 2.45 2.85 4.259 7.431 7.094 13.25 8.196 12.299 2.323 30.071-3.26 46.381-14.583 24.771-17.178 36.645-40.314 27.603-53.84a17.836 17.836 0 0 0-4.377-4.518c10.119-5.574 15.825-13.322 18.486-17.826.11-.21.218-.411.328-.619 1.934-4.016 4.253-7.934 7.037-11.859l39.163 39.164-28.941 26.979c-.792.738-1.467 1.61-1.891 2.605-1.273 2.99-.546 6.28 1.599 8.426l30.598 30.596a7.63 7.63 0 0 0 5.417 2.226l.092-.001a7.595 7.595 0 0 0 5.427-2.418l27.073-29.04 39.162 39.162c-3.93 2.79-7.855 5.118-11.878 7.061l-.569.301c-4.504 2.643-12.258 8.327-17.857 18.489a17.799 17.799 0 0 0-4.531-4.384c-13.51-9.035-36.651 2.834-53.829 27.608-11.323 16.33-16.906 34.113-14.571 46.406 1.103 5.807 3.934 10.381 8.174 13.216.5.334 1.186.742 2.461 1.363-9.316 5.841-16.423 14.634-20.002 24.981-5.995 17.303-14.539 32.077-24.058 41.596-19.445 19.447-44.342 19.245-61.802 15.656-18.32-3.767-37.077-12.891-54.301-26.232l36.404-36.405 55.071-28.994a7.604 7.604 0 0 0 1.835-12.104l-46.802-46.802a7.602 7.602 0 0 0-12.104 1.835l-28.996 55.073-36.404 36.404c-13.344-17.226-22.469-35.984-26.237-54.304-3.591-17.461-3.79-42.358 15.655-61.803a72.68 72.68 0 0 1 6.77-5.942c3.126-2.432 3.843-6.869 1.659-10.173-2.45-3.707-7.54-4.519-11.045-1.788-2.96 2.306-5.682 4.697-8.136 7.151-18.905 18.907-25.936 45.762-19.795 75.617 5.601 27.24 21.551 55.106 44.909 78.463 23.353 23.353 51.214 39.299 78.453 44.899 7.04 1.448 13.911 2.163 20.553 2.162 21.522-.001 40.614-7.513 55.062-21.961 11.274-11.275 20.844-27.656 27.675-47.374 3.036-8.776 9.837-15.936 18.63-19.628a11.689 11.689 0 0 0 3.801-2.531 11.55 11.55 0 0 0 3.167-10.439 11.205 11.205 0 0 0-6.744-8.178c-5.515-2.263-6.995-3.053-7.266-3.206-.961-.682-1.428-2.214-1.652-3.388-1.291-6.804 1.957-20.236 12.128-34.906 13.409-19.336 28.909-26.29 32.869-23.642.186.124.748.503 1.235 1.728.12.302.258.595.416.879l.117.28.056.132c1.841 4.55 6.219 7.5 11.152 7.515h.037c5.074 0 9.602-3.043 11.548-7.77 3.755-9.158 10.116-14.062 13.739-16.238 5.431-2.644 10.665-5.847 15.888-9.74l142.258 142.259a7.58 7.58 0 0 0 5.376 2.226 7.603 7.603 0 0 0 5.376-12.978l-25.466-25.466 15.669-15.669a7.603 7.603 0 0 0 0-10.752L367.105 278.928c4.019-9.979 5.758-21.276 4.989-33.277-1.14-17.843-7.693-36.316-18.584-52.735l14.906-15.989a7.602 7.602 0 0 0-.377-10.744l-.001-.001a7.602 7.602 0 0 0-10.744.377l-49.481 53.078-15.626-15.625L464.924 42.981l3.918 3.918-88.551 94.99a7.602 7.602 0 0 0 .377 10.744l.001.001a7.602 7.602 0 0 0 10.744-.377l36.438-39.088 1.451 1.451c-3.547 9.311-.818 20.245 7.437 26.689a23.19 23.19 0 0 0 14.319 4.925c7.494 0 14.91-3.588 19.459-10.423 6.329-9.51 4.709-22.508-3.775-30.156-5.109-4.606-11.768-6.7-18.511-5.863a23.21 23.21 0 0 0-9.114 3.139l-.89-.89 25.934-27.821 2.77 2.77c-3.546 9.311-.817 20.247 7.437 26.689a23.19 23.19 0 0 0 14.319 4.925c7.493 0 14.908-3.587 19.457-10.42 6.332-9.508 4.717-22.504-3.764-30.154zm-74.181-37.211a8.047 8.047 0 0 1-5.4 3.06 8.06 8.06 0 0 1-5.982-1.656c-3.526-2.751-4.155-7.857-1.404-11.382a8.1 8.1 0 0 1 6.402-3.116c1.745 0 3.501.559 4.98 1.712 3.527 2.751 4.157 7.858 1.404 11.382zm-37.63 37.631c-2.751 3.523-7.857 4.155-11.381 1.404a8.056 8.056 0 0 1-3.059-5.4 8.059 8.059 0 0 1 1.656-5.983 8.056 8.056 0 0 1 5.4-3.059 8.048 8.048 0 0 1 5.982 1.656 8.048 8.048 0 0 1 3.059 5.399 8.053 8.053 0 0 1-1.657 5.983zM117.341 362.274l32.209 32.209-42.005 22.116-12.32-12.32 22.116-42.005zm-59.516 91.734a179.218 179.218 0 0 1-4.65-4.847l32.712-32.713 9.49 9.49-32.713 32.712a177.09 177.09 0 0 1-4.839-4.642zm154.156-295.566c-1.27 1.27-2.492 2.53-3.67 3.783l-82.079-82.079c6.831-4.838 16.371-4.216 22.484 1.899l70.352 70.351a60.972 60.972 0 0 0-7.087 6.046zm7.088 14.541a159.378 159.378 0 0 1 3.664-3.79 47.085 47.085 0 0 1 7.22-5.912l40.346 40.346-10.655 9.933-40.575-40.577zm35.995 103.238l-19.461-19.46 23.672-22.068 17.857 17.857-22.068 23.671zm191.737 103.907l18.222 18.222-10.295 10.294-18.221-18.221 10.294-10.295zm-10.752-10.752l-10.294 10.295-76.161-76.161c1.253-1.18 2.513-2.4 3.783-3.67a60.866 60.866 0 0 0 6.045-7.087l76.627 76.623zM342.81 204.394c8.256 13.409 13.208 28.099 14.111 42.227.378 5.914.123 13.048-1.783 20.34l-36.567-36.567 24.239-26zm-34.613 37.13l40.342 40.342a46.933 46.933 0 0 1-5.912 7.222 155.581 155.581 0 0 1-3.789 3.664l-40.574-40.574 9.933-10.654zm-10.759-10.759l-9.933 10.655-17.102-17.102 10.655-9.932 16.38 16.379zm-16.009-37.513l-36.574-36.574c7.297-1.908 14.437-2.164 20.356-1.789 14.128.904 28.819 5.855 42.23 14.113l-26.012 24.25zM444.69 117.94a8.064 8.064 0 0 1 5.402-3.059 8.053 8.053 0 0 1 5.982 1.655c3.526 2.751 4.155 7.857 1.404 11.382-2.752 3.525-7.859 4.155-11.382 1.404-3.527-2.752-4.157-7.857-1.406-11.382zm27.645-89.052l19.093-12.745 4.252 4.251-12.746 19.093-10.599-10.599zm22.772 61.402c-2.752 3.524-7.857 4.155-11.382 1.404-3.525-2.751-4.155-7.858-1.404-11.382a8.057 8.057 0 0 1 5.401-3.06 8.053 8.053 0 0 1 5.982 1.655c3.525 2.751 4.154 7.857 1.403 11.383z"/></svg>